<?xml version="1.0" encoding="UTF-8"?>
<svg version="1.1" xmlns="http://www.w3.org/2000/svg" width="194" height="254">
<path d="M0 0 C64.02 0 128.04 0 194 0 C194 83.82 194 167.64 194 254 C129.98 254 65.96 254 0 254 C0 170.18 0 86.36 0 0 Z " fill="#0E1F2A" transform="translate(0,0)"/>
<path d="M0 0 C64.02 0 128.04 0 194 0 C194 83.82 194 167.64 194 254 C129.98 254 65.96 254 0 254 C0 170.18 0 86.36 0 0 Z M28 4 C28 67.36 28 130.72 28 196 C73.54 196 119.08 196 166 196 C166 132.64 166 69.28 166 4 C120.46 4 74.92 4 28 4 Z " fill="#FAFAFA" transform="translate(0,0)"/>
<path d="M0 0 C40.92 0 81.84 0 124 0 C124 60.72 124 121.44 124 184 C119.71 184 115.42 184 111 184 C110.95360731 171.36056832 110.91809551 158.72115698 110.89637566 146.08165741 C110.88594989 140.21228523 110.87181263 134.34297141 110.84912109 128.47363281 C110.82734983 122.80670093 110.81542229 117.1398251 110.81024551 111.47285461 C110.80655746 109.3135744 110.79935564 107.15429717 110.78853989 104.99504089 C110.77396817 101.96472606 110.77202445 98.93464125 110.77294922 95.90429688 C110.76575867 95.01668671 110.75856812 94.12907654 110.75115967 93.21456909 C110.76899958 87.79260943 111.54623146 83.22189033 113 78 C114.42906453 60.7027514 109.66373375 45.34007865 99.125 31.625 C97.77851482 30.05836706 96.40402157 28.51528365 95 27 C94.35804688 26.30390625 93.71609375 25.6078125 93.0546875 24.890625 C86.46626846 18.42746107 78.32493474 14.73995256 70 11 C68.65421875 10.38898437 68.65421875 10.38898437 67.28125 9.765625 C61.17741179 7.71707656 54.86457211 10.08232606 49.3125 12.78125 C48.549375 13.1834375 47.78625 13.585625 47 14 C46.195625 14.4228125 45.39125 14.845625 44.5625 15.28125 C27.93915551 24.63188128 17.73652831 39.11432424 12 57 C10.97115179 61.66700421 10.84815525 66.23953057 10.875 71 C10.87113281 71.68578125 10.86726563 72.3715625 10.86328125 73.078125 C10.86884434 75.99318209 10.95507099 78.76409638 11.50120544 81.63162231 C12.15279316 86.03181777 12.13118732 90.32736568 12.11352539 94.76904297 C12.11367142 95.73552261 12.11381744 96.70200226 12.1139679 97.69776917 C12.11327351 100.8792651 12.10550333 104.06070184 12.09765625 107.2421875 C12.09579039 109.45321623 12.09436728 111.66424537 12.09336853 113.87527466 C12.08955662 119.68507027 12.07973765 125.49484076 12.06866455 131.30462646 C12.05842192 137.23693502 12.0538648 143.16924765 12.04882812 149.1015625 C12.03811419 160.73438602 12.02105369 172.36719092 12 184 C8.04 184 4.08 184 0 184 C0 123.28 0 62.56 0 0 Z " fill="#ECD3B8" transform="translate(35,11)"/>
<path d="M0 0 C0 41.58 0 83.16 0 126 C-11.55 126 -23.1 126 -35 126 C-35.24065286 108.14266678 -35.24065286 108.14266678 -35.29296875 100.49023438 C-35.3287416 95.28241989 -35.37091184 90.07524247 -35.45263672 84.86791992 C-35.51816049 80.66626985 -35.55377485 76.46530352 -35.56926346 72.26318169 C-35.5802911 70.66563602 -35.60182566 69.06812488 -35.63438034 67.47087288 C-35.81413286 58.28027212 -35.68900708 51.04584943 -29 44 C-28.43405121 43.47749161 -27.86810242 42.95498322 -27.28500366 42.41664124 C-26.86095245 41.94914963 -26.43690125 41.48165802 -26 41 C-26.2486184 38.6113671 -26.2486184 38.6113671 -27 36 C-27.79915221 27.28924091 -27.34246721 20.17566674 -22 13 C-17.73912587 8.61853509 -6.27884746 0 0 0 Z " fill="#47A3D3" transform="translate(96,69)"/>
<path d="M0 0 C22.8686326 12.19660406 22.8686326 12.19660406 26.38671875 22.37890625 C27.61642907 27.63454719 27.59186535 32.71752438 26.23828125 37.9375 C25.91405442 42.10461203 27.30569936 43.53170646 29.875 46.75 C30.61492187 47.69359375 31.35484375 48.6371875 32.1171875 49.609375 C33.04917969 50.79273437 33.04917969 50.79273437 34 52 C35.47123364 54.94246727 35.11924765 57.55185022 35.11352539 60.83642578 C35.11367142 61.53897491 35.11381744 62.24152405 35.1139679 62.96536255 C35.11327014 65.29204373 35.10548419 67.61864527 35.09765625 69.9453125 C35.09579158 71.55671139 35.09436791 73.16811084 35.09336853 74.7795105 C35.0895472 79.02428752 35.07972018 83.26903042 35.06866455 87.51379395 C35.05664544 92.604897 35.05204636 97.69601146 35.04621124 102.78712463 C35.03650823 110.5247735 35.017349 118.26234747 35 126 C23.45 126 11.9 126 0 126 C0 84.42 0 42.84 0 0 Z " fill="#3D8AB3" transform="translate(98,69)"/>
<path d="M0 0 C1.98 0 3.96 0 6 0 C6 0.99 6 1.98 6 3 C6.78375 2.71125 7.5675 2.4225 8.375 2.125 C13.87269631 1.93542427 17.69270982 4.74629159 22 8 C22.99 9.485 22.99 9.485 24 11 C24.680625 11.165 25.36125 11.33 26.0625 11.5 C26.701875 11.665 27.34125 11.83 28 12 C28.495 13.485 28.495 13.485 29 15 C29.99 15.33 30.98 15.66 32 16 C32.495 17.485 32.495 17.485 33 19 C33.825 19.804375 34.65 20.60875 35.5 21.4375 C38.77821032 24.79766558 39 26.45185524 39 31 C39.99 31 40.98 31 42 31 C42 32.32 42 33.64 42 35 C42.66 35.33 43.32 35.66 44 36 C44 37.32 44 38.64 44 40 C43.01 40.495 43.01 40.495 42 41 C42 41.66 42 42.32 42 43 C43.32 43 44.64 43 46 43 C46.495 47.455 46.495 47.455 47 52 C45.35 51.34 43.7 50.68 42 50 C43.73944852 53.01907333 43.73944852 53.01907333 46.125 54.4375 C46.74375 54.953125 47.3625 55.46875 48 56 C48 57.32 48 58.64 48 60 C46.02 59.34 44.04 58.68 42 58 C42 58.66 42 59.32 42 60 C43.485 60.495 43.485 60.495 45 61 C45.495 63.475 45.495 63.475 46 66 C44.68 66.33 43.36 66.66 42 67 C43.485 67.495 43.485 67.495 45 68 C45 69.65 45 71.3 45 73 C44.01 73 43.02 73 42 73 C42 73.99 42 74.98 42 76 C42.99 76 43.98 76 45 76 C45 77.65 45 79.3 45 81 C44.01 81 43.02 81 42 81 C42 81.99 42 82.98 42 84 C42.99 84 43.98 84 45 84 C45 85.65 45 87.3 45 89 C40.97449681 87.6581656 40.11714364 85.5772427 38 82 C38 81.34 38 80.68 38 80 C38.66 80 39.32 80 40 80 C39.34 79.01 38.68 78.02 38 77 C37.875 74.3125 37.875 74.3125 38 72 C38.66 72 39.32 72 40 72 C40 71.01 40 70.02 40 69 C39.34 69 38.68 69 38 69 C37.67 67.35 37.34 65.7 37 64 C37.99 64 38.98 64 40 64 C40 63.01 40 62.02 40 61 C38.68 61 37.36 61 36 61 C35.773125 60.319375 35.54625 59.63875 35.3125 58.9375 C33.64427643 55.20385676 31.44270392 52.27836579 29 49 C30.8125 47 30.8125 47 33 45 C33.99 45 34.98 45 36 45 C36 45.99 36 46.98 36 48 C35.01 48.495 35.01 48.495 34 49 C33.67 49.99 33.34 50.98 33 52 C33.78375 51.34 34.5675 50.68 35.375 50 C38 48 38 48 40 48 C40 46.68 40 45.36 40 44 C38.02 43.505 38.02 43.505 36 43 C36 42.34 36 41.68 36 41 C35.01 41 34.02 41 33 41 C33 41.99 33 42.98 33 44 C31.35 44.33 29.7 44.66 28 45 C28 45.66 28 46.32 28 47 C26.68 46.34 25.36 45.68 24 45 C24.99 44.67 25.98 44.34 27 44 C27 43.01 27 42.02 27 41 C25.02 40.505 25.02 40.505 23 40 C23 39.01 23 38.02 23 37 C21.68 37 20.36 37 19 37 C19.99 38.32 20.98 39.64 22 41 C19.36 40.67 16.72 40.34 14 40 C13.67 39.01 13.34 38.02 13 37 C11.68 37 10.36 37 9 37 C9 35.68 9 34.36 9 33 C7.68 33 6.36 33 5 33 C5 31.68 5 30.36 5 29 C3.68 29 2.36 29 1 29 C1.495 30.485 1.495 30.485 2 32 C2.66 32 3.32 32 4 32 C4.495 32.70125 4.99 33.4025 5.5 34.125 C9.41549555 38.62781988 14.60656899 41.32049256 19.92578125 43.953125 C27.33837167 47.70202131 32.72233288 54.03593417 35.45458984 61.84082031 C36.3717435 65.47166496 36.22981529 69.0282692 36.1875 72.75 C36.32014062 80.84775161 38.08779099 85.18952399 43.28515625 91.51953125 C45.21674284 94.31351185 45.37557922 95.67940279 45 99 C43.35 99 41.7 99 40 99 C39.65388672 98.02160156 39.65388672 98.02160156 39.30078125 97.0234375 C38.97464844 96.14945312 38.64851563 95.27546875 38.3125 94.375 C37.99925781 93.51648438 37.68601562 92.65796875 37.36328125 91.7734375 C36.0764349 88.80126555 36.0764349 88.80126555 33.359375 86.25 C30.50790738 82.97810008 30.57622743 80.32564174 30.75585938 76.109375 C30.81580078 75.28953125 30.87574219 74.4696875 30.9375 73.625 C31.49248124 65.58734064 30.48130132 60.15779874 25.2109375 53.86328125 C20.83501137 50.16702025 16.46926484 47.54877578 11.27734375 45.1328125 C8.52728249 43.7648575 6.27877415 42.05089673 4 40 C1.14826175 41.00649585 -1.17096581 42.11530253 -3.6875 43.8125 C-6.4698243 45.64988397 -8.97932286 46.90496085 -12 48.25 C-18.57617861 51.47381087 -21.36041039 56.10339169 -24.875 62.3125 C-26.68296668 68.23861302 -26.73756305 74.26048011 -25.125 80.25 C-25 83 -25 83 -26.1640625 84.59765625 C-27.24036414 85.76144053 -28.32944725 86.91350808 -29.4296875 88.0546875 C-32.03746008 91.28521174 -32.97400153 95.03100592 -34 99 C-35.65 99 -37.3 99 -39 99 C-38.88739444 93.82014444 -37.75035448 91.49412698 -34.4375 87.5 C-30.24013516 81.91486545 -30.61885933 77.39675171 -30.92578125 70.6171875 C-31.09568687 62.33652397 -28.20983577 56.24008712 -22.94921875 49.96484375 C-19.95924057 46.95089781 -16.73153893 44.97511859 -13 43 C-11.33319468 42.06274654 -9.66652713 41.12524802 -8 40.1875 C-6.66785254 39.45616905 -5.33495612 38.72619141 -4 38 C-5.32 38 -6.64 38 -8 38 C-8.66 36.35 -9.32 34.7 -10 33 C-10.433125 33.474375 -10.86625 33.94875 -11.3125 34.4375 C-13 36 -13 36 -16 37 C-16 37.66 -16 38.32 -16 39 C-15.34 39 -14.68 39 -14 39 C-13.67 38.34 -13.34 37.68 -13 37 C-11.68 37 -10.36 37 -9 37 C-9 37.66 -9 38.32 -9 39 C-10.4609375 40.2890625 -10.4609375 40.2890625 -12.375 41.625 C-13.00148438 42.07101563 -13.62796875 42.51703125 -14.2734375 42.9765625 C-16 44 -16 44 -18 44 C-18 43.01 -18 42.02 -18 41 C-18.99 41 -19.98 41 -21 41 C-20.67 42.65 -20.34 44.3 -20 46 C-20.99 46.495 -20.99 46.495 -22 47 C-22 45.68 -22 44.36 -22 43 C-22.99 43.495 -22.99 43.495 -24 44 C-24.65213292 46.02463255 -24.65213292 46.02463255 -25 48 C-24.34 48.33 -23.68 48.66 -23 49 C-23.42152344 49.53109375 -23.84304687 50.0621875 -24.27734375 50.609375 C-24.82519531 51.31578125 -25.37304688 52.0221875 -25.9375 52.75 C-26.48277344 53.44609375 -27.02804688 54.1421875 -27.58984375 54.859375 C-28.97425654 56.96092128 -29.56286987 58.54321799 -30 61 C-31.32 61 -32.64 61 -34 61 C-34 61.99 -34 62.98 -34 64 C-33.34 64 -32.68 64 -32 64 C-32 65.65 -32 67.3 -32 69 C-32.66 69 -33.32 69 -34 69 C-34 69.99 -34 70.98 -34 72 C-33.34 72 -32.68 72 -32 72 C-31.63076923 76.55384615 -31.63076923 76.55384615 -33.5 78.8125 C-34.2425 79.4003125 -34.2425 79.4003125 -35 80 C-34.01 80 -33.02 80 -32 80 C-33.49920512 83.11373372 -35.08152136 86.12228205 -37 89 C-37.66 89 -38.32 89 -39 89 C-39 87.35 -39 85.7 -39 84 C-38.01 84 -37.02 84 -36 84 C-36.495 83.608125 -36.99 83.21625 -37.5 82.8125 C-39.45593143 80.44908285 -39.24207973 78.98564997 -39 76 C-38.34 76 -37.68 76 -37 76 C-37 75.34 -37 74.68 -37 74 C-37.66 73.67 -38.32 73.34 -39 73 C-39.66796875 71.0390625 -39.66796875 71.0390625 -40.1875 68.625 C-40.36667969 67.83351563 -40.54585937 67.04203125 -40.73046875 66.2265625 C-41 64 -41 64 -40 61 C-40.66 61 -41.32 61 -42 61 C-42 59.35 -42 57.7 -42 56 C-41.34 56 -40.68 56 -40 56 C-40 55.01 -40 54.02 -40 53 C-40.66 53 -41.32 53 -42 53 C-42.22036864 49.14354879 -41.60355101 46.50776784 -40 43 C-38.68 43.33 -37.36 43.66 -36 44 C-36 43.01 -36 42.02 -36 41 C-36.99 41 -37.98 41 -39 41 C-38.67 39.35 -38.34 37.7 -38 36 C-37.34 36 -36.68 36 -36 36 C-36 34.35 -36 32.7 -36 31 C-34.68 31 -33.36 31 -32 31 C-32 30.34 -32 29.68 -32 29 C-32.66 28.34 -33.32 27.68 -34 27 C-33.04956626 25.66102417 -32.08940853 24.32894573 -31.125 23 C-30.59132813 22.2575 -30.05765625 21.515 -29.5078125 20.75 C-29.01023437 20.1725 -28.51265625 19.595 -28 19 C-27.34 19 -26.68 19 -26 19 C-26 18.01 -26 17.02 -26 16 C-25.01 15.67 -24.02 15.34 -23 15 C-22.67 14.01 -22.34 13.02 -22 12 C-21.01 11.67 -20.02 11.34 -19 11 C-18.34 10.01 -17.68 9.02 -17 8 C-14.50390625 6.39453125 -14.50390625 6.39453125 -11.5625 4.8125 C-10.59441406 4.28269531 -9.62632813 3.75289062 -8.62890625 3.20703125 C-6 2 -6 2 -3 2 C-3 2.66 -3 3.32 -3 4 C-2.34 3.67 -1.68 3.34 -1 3 C-0.67 2.01 -0.34 1.02 0 0 Z " fill="#B9A390" transform="translate(94,27)"/>
<path d="M0 0 C44.88 0 89.76 0 136 0 C136 62.37 136 124.74 136 189 C134.35 189 132.7 189 131 189 C131 127.95 131 66.9 131 4 C89.42 4 47.84 4 5 4 C5 65.05 5 126.1 5 189 C3.35 189 1.7 189 0 189 C0 126.63 0 64.26 0 0 Z " fill="#D8C2AC" transform="translate(29,6)"/>
<path d="M0 0 C45.54 0 91.08 0 138 0 C138 63.36 138 126.72 138 192 C129.75 192 121.5 192 113 192 C114.32 191.67 115.64 191.34 117 191 C116.99777939 189.75607483 116.99555878 188.51214966 116.99327087 187.23052979 C116.97301457 175.51772514 116.95801582 163.80492404 116.94818783 152.09210587 C116.94296535 146.07018556 116.93587916 140.04827937 116.92456055 134.02636719 C116.91370919 128.21681326 116.90771837 122.40727293 116.90512276 116.59770966 C116.90327258 114.37930843 116.89965974 112.16090796 116.89426994 109.94251251 C116.88702974 106.83958823 116.88601033 103.73672041 116.88647461 100.63378906 C116.88287933 99.71309631 116.87928406 98.79240356 116.87557983 97.84381104 C116.8769545 96.99689697 116.87832916 96.14998291 116.87974548 95.27740479 C116.87882369 94.54365757 116.8779019 93.80991035 116.87695217 93.05392838 C117.0047133 90.92132499 117.47256498 89.06548239 118 87 C118.60464358 73.82199595 118.60464358 73.82199595 116 61 C115.731875 60.2059375 115.46375 59.411875 115.1875 58.59375 C109.00559035 41.90259396 97.98789771 29.80318451 82.29296875 21.58203125 C75.70155655 18.70672231 69.0887394 16.83178874 62.01953125 18.8515625 C43.52003971 26.12005727 31.46331547 38.88528086 23.26171875 56.7265625 C20.42353462 64.09002473 19.70229669 70.43136523 19.8125 78.25 C19.8134668 79.57644531 19.8134668 79.57644531 19.81445312 80.9296875 C19.771239 85.44472971 19.771239 85.44472971 20.50156307 89.87022781 C21.01740473 92.07436869 21.12312332 93.97882659 21.12025452 96.23944092 C21.12162918 97.07794083 21.12300385 97.91644073 21.12442017 98.78034973 C21.12082489 99.69169174 21.11722961 100.60303375 21.11352539 101.54199219 C21.11367142 102.50817978 21.11381744 103.47436737 21.1139679 104.46983337 C21.11327144 107.66220345 21.1054915 110.85451512 21.09765625 114.046875 C21.09579112 116.26076221 21.09436767 118.47464983 21.09336853 120.6885376 C21.08955082 126.51480245 21.07972687 132.34104236 21.06866455 138.16729736 C21.05843441 144.11283023 21.05386747 150.05836712 21.04882812 156.00390625 C21.03810396 167.66928179 21.02103646 179.33463882 21 191 C22.32 191.33 23.64 191.66 25 192 C16.75 192 8.5 192 0 192 C0 128.64 0 65.28 0 0 Z M1 2 C1 64.37 1 126.74 1 191 C2.65 191 4.3 191 6 191 C6 129.95 6 68.9 6 6 C47.58 6 89.16 6 132 6 C132 67.05 132 128.1 132 191 C133.65 191 135.3 191 137 191 C137 128.63 137 66.26 137 2 C92.12 2 47.24 2 1 2 Z M7 7 C7 67.72 7 128.44 7 191 C10.96 191 14.92 191 19 191 C19.02317404 178.19563112 19.04094095 165.39126723 19.05181217 152.58688164 C19.0570299 146.64124689 19.06410745 140.69562649 19.07543945 134.75 C19.0863077 129.01175928 19.09228521 123.27353236 19.09487724 117.53528214 C19.09672438 115.34644478 19.10033134 113.15760818 19.10573006 110.9687767 C19.11299269 107.9021822 19.11398873 104.83564469 19.11352539 101.76904297 C19.11712067 100.86489151 19.12071594 99.96074005 19.12442017 99.02919006 C19.11711632 94.55947925 18.85064465 90.40538174 18 86 C16.95440072 67.13899761 21.47999088 50.81914531 33.90625 36.2421875 C43.05177984 26.44828054 55.05249455 17.11126941 68.84765625 15.7109375 C72.81528506 16.07475972 76.09792968 17.37512894 79.6875 19 C80.74142944 19.47312622 80.74142944 19.47312622 81.81665039 19.95581055 C98.84006316 27.87127924 110.74156775 41.35227754 117.375 58.875 C119.53903532 65.02838738 120.15394892 70.8660914 120.1875 77.375 C120.20167969 78.62023437 120.21585937 79.86546875 120.23046875 81.1484375 C120 85 120 85 118.99978638 88.6217041 C117.76597737 93.40670695 117.73310048 97.98532216 117.77294922 102.90429688 C117.77265717 103.861315 117.77236511 104.81833313 117.77206421 105.80435181 C117.7734487 108.94257934 117.78896827 112.08056435 117.8046875 115.21875 C117.80842076 117.40449901 117.81126625 119.59024969 117.81326294 121.77600098 C117.82087472 127.51017939 117.84050207 133.24425541 117.8626709 138.97839355 C117.88318231 144.83714412 117.89227596 150.69591133 117.90234375 156.5546875 C117.92375032 168.03650315 117.95785652 179.51824304 118 191 C122.29 191 126.58 191 131 191 C131 130.28 131 69.56 131 7 C90.08 7 49.16 7 7 7 Z " fill="#2F2B27" transform="translate(28,4)"/>
<path d="M0 0 C16.76061683 9.08558189 28.17495992 23.67174789 34.15625 41.7109375 C35.15159312 46.96585457 35.30930126 52.07337308 35.28125 57.3984375 C35.28511719 58.14416016 35.28898437 58.88988281 35.29296875 59.65820312 C35.28306609 65.20864267 35.28306609 65.20864267 34.65783787 67.68505478 C34.1205138 69.85527382 34.01767453 71.75466182 33.99803162 73.98834229 C33.9882428 74.83525635 33.97845398 75.68217041 33.96836853 76.55474854 C33.96261307 77.47544128 33.9568576 78.39613403 33.95092773 79.34472656 C33.94102814 80.32066772 33.93112854 81.29660889 33.92092896 82.30212402 C33.8893497 85.5269122 33.86457056 88.7517151 33.83984375 91.9765625 C33.81927115 94.21287417 33.79827459 96.44918197 33.77687073 98.68548584 C33.72168176 104.57089103 33.67225842 110.45633113 33.62402344 116.34179688 C33.57378528 122.34768785 33.51811128 128.35352814 33.46289062 134.359375 C33.35534786 146.14318587 33.25389422 157.92704074 33.15625 169.7109375 C31.83625 169.7109375 30.51625 169.7109375 29.15625 169.7109375 C29.133066 156.7934555 29.115304 143.87597846 29.10443783 130.95847988 C29.09922227 124.96018679 29.09214869 118.96190794 29.08081055 112.96362305 C29.06993455 107.1735069 29.06396316 101.38340446 29.06137276 95.59327888 C29.05952701 93.38573046 29.05592275 91.17818277 29.05051994 88.97064018 C29.04324702 85.8755113 29.0422617 82.78043881 29.04272461 79.68530273 C29.03912933 78.77539581 29.03553406 77.86548889 29.03182983 76.92800903 C29.03964961 72.08687952 29.37132752 67.50269561 30.15625 62.7109375 C31.21895756 45.1353894 26.18254379 30.63358197 14.625 17.24609375 C6.79865866 9.20923374 -3.80117623 2.33437983 -15.01953125 0.3203125 C-25.81145498 0.78249339 -36.88556307 9.47360445 -44.21875 16.82421875 C-54.48725961 28.11652321 -60.04255921 41.55544659 -59.96875 56.7109375 C-59.97261719 57.505 -59.97648437 58.2990625 -59.98046875 59.1171875 C-59.97917969 59.890625 -59.97789063 60.6640625 -59.9765625 61.4609375 C-59.97543457 62.15703125 -59.97430664 62.853125 -59.97314453 63.5703125 C-59.90834781 65.71182505 -59.90834781 65.71182505 -59.34275818 67.74125671 C-58.63439078 71.95686909 -58.71332346 76.09919952 -58.73022461 80.36645508 C-58.73007858 81.3327887 -58.72993256 82.29912231 -58.7297821 83.29473877 C-58.73047752 86.48167177 -58.7382526 89.66854598 -58.74609375 92.85546875 C-58.74795925 95.06792672 -58.74938253 97.2803851 -58.75038147 99.49284363 C-58.75419628 105.31087386 -58.76401775 111.12887906 -58.77508545 116.94689941 C-58.78532182 122.88582012 -58.78988386 128.82474488 -58.79492188 134.76367188 C-58.80564093 146.4127714 -58.82270494 158.06185237 -58.84375 169.7109375 C-60.16375 169.7109375 -61.48375 169.7109375 -62.84375 169.7109375 C-62.85405746 168.47954041 -62.86436493 167.24814331 -62.87498474 165.97943115 C-62.97266892 154.38430478 -63.07539835 142.78923267 -63.18308926 131.19419479 C-63.23829366 125.23283488 -63.29170979 119.27147004 -63.34106445 113.31005859 C-63.38874449 107.55881708 -63.44108878 101.80763534 -63.49669075 96.05646515 C-63.51709777 93.8604099 -63.53581359 91.66433827 -63.55282402 89.46825409 C-63.57690447 86.39641898 -63.60695429 83.32469669 -63.63842773 80.25292969 C-63.6441832 79.34158768 -63.64993866 78.43024567 -63.65586853 77.49128723 C-63.66565735 76.65278732 -63.67544617 75.81428741 -63.68553162 74.95037842 C-63.69198417 74.22400555 -63.69843672 73.49763268 -63.7050848 72.7492485 C-63.8491746 70.63119856 -64.29397842 68.75707671 -64.84375 66.7109375 C-66.3835668 48.58357695 -63.04544408 31.90524093 -51.296875 17.47265625 C-37.72459063 1.68572902 -20.3171772 -9.05894757 0 0 Z " fill="#E4CCB2" transform="translate(111.84375,25.2890625)"/>
<path d="M0 0 C0.69617432 0.35747314 1.39234863 0.71494629 2.10961914 1.08325195 C17.42239216 9.25728584 27.11730315 23.04613892 32.125 39.5 C33.13414707 43.49826625 33.25901349 47.25583543 33.25 51.375 C33.25386719 53.13457031 33.25386719 53.13457031 33.2578125 54.9296875 C33.125 58.5 33.125 58.5 32.62953186 61.5997467 C32.02817653 66.248488 31.9492925 70.79243468 31.91967773 75.47436523 C31.90977814 76.45074448 31.89987854 77.42712372 31.88967896 78.43309021 C31.85823906 81.64156722 31.83337612 84.850059 31.80859375 88.05859375 C31.78800909 90.29061759 31.76701223 92.52263767 31.74562073 94.75465393 C31.69055625 100.61535584 31.64107833 106.47609202 31.59277344 112.33685303 C31.54244403 118.32290682 31.48681779 124.30891115 31.43164062 130.29492188 C31.32425027 142.02990561 31.22276318 153.76493239 31.125 165.5 C30.795 165.5 30.465 165.5 30.125 165.5 C30.125 144.05 30.125 122.6 30.125 100.5 C28.145 100.5 26.165 100.5 24.125 100.5 C24.125 99.18 24.125 97.86 24.125 96.5 C25.775 96.5 27.425 96.5 29.125 96.5 C28.17224662 91.63037159 26.77167849 88.98195899 23.5625 85.1875 C19.47612195 79.70248534 19.34946335 74.70833778 19.38842773 68.09643555 C19.39714517 59.25211172 16.6537375 53.13708452 10.63671875 46.6640625 C6.862535 43.41227743 2.63984401 41.351172 -1.796875 39.1328125 C-5.77571339 37.02221041 -8.69742806 34.67757194 -11.875 31.5 C-11.875 30.84 -11.875 30.18 -11.875 29.5 C-12.865 29.83 -13.855 30.16 -14.875 30.5 C-14.875 29.18 -14.875 27.86 -14.875 26.5 C-13.555 26.5 -12.235 26.5 -10.875 26.5 C-10.875 27.82 -10.875 29.14 -10.875 30.5 C-9.555 30.5 -8.235 30.5 -6.875 30.5 C-6.875 31.82 -6.875 33.14 -6.875 34.5 C-5.555 34.5 -4.235 34.5 -2.875 34.5 C-2.545 35.16 -2.215 35.82 -1.875 36.5 C1.15434491 37.15772428 1.15434491 37.15772428 4.125 37.5 C3.795 36.51 3.465 35.52 3.125 34.5 C4.445 34.5 5.765 34.5 7.125 34.5 C7.455 35.49 7.785 36.48 8.125 37.5 C9.61 37.995 9.61 37.995 11.125 38.5 C11.125 39.49 11.125 40.48 11.125 41.5 C10.135 41.995 10.135 41.995 9.125 42.5 C10.61 43.49 10.61 43.49 12.125 44.5 C12.125 43.84 12.125 43.18 12.125 42.5 C13.775 42.17 15.425 41.84 17.125 41.5 C17.125 40.51 17.125 39.52 17.125 38.5 C18.115 38.5 19.105 38.5 20.125 38.5 C20.455 39.16 20.785 39.82 21.125 40.5 C22.61 40.995 22.61 40.995 24.125 41.5 C24.125 42.82 24.125 44.14 24.125 45.5 C23.1659375 45.6546875 23.1659375 45.6546875 22.1875 45.8125 C21.506875 46.039375 20.82625 46.26625 20.125 46.5 C19.795 47.49 19.465 48.48 19.125 49.5 C18.465 49.5 17.805 49.5 17.125 49.5 C17.455 48.18 17.785 46.86 18.125 45.5 C18.785 45.5 19.445 45.5 20.125 45.5 C20.125 44.51 20.125 43.52 20.125 42.5 C17.56996043 43.78288757 17.56996043 43.78288757 15.125 45.5 C14.80094069 48.76211673 14.80094069 48.76211673 17.625 51.4375 C20.125 54.5 20.125 54.5 20.125 58.5 C21.445 58.5 22.765 58.5 24.125 58.5 C24.125 59.49 24.125 60.48 24.125 61.5 C23.135 61.5 22.145 61.5 21.125 61.5 C21.455 63.15 21.785 64.8 22.125 66.5 C22.785 66.5 23.445 66.5 24.125 66.5 C24.125 67.49 24.125 68.48 24.125 69.5 C23.465 69.5 22.805 69.5 22.125 69.5 C23.115 73.46 23.115 73.46 24.125 77.5 C23.465 77.5 22.805 77.5 22.125 77.5 C22.91051657 78.81618998 23.7036237 80.12785228 24.5 81.4375 C24.94085938 82.16839844 25.38171875 82.89929688 25.8359375 83.65234375 C27.0023984 85.63772272 27.0023984 85.63772272 29.125 86.5 C29.125 84.85 29.125 83.2 29.125 81.5 C28.135 81.5 27.145 81.5 26.125 81.5 C26.125 80.51 26.125 79.52 26.125 78.5 C27.115 78.5 28.105 78.5 29.125 78.5 C29.125 76.85 29.125 75.2 29.125 73.5 C28.135 73.5 27.145 73.5 26.125 73.5 C26.125 72.51 26.125 71.52 26.125 70.5 C27.115 70.5 28.105 70.5 29.125 70.5 C29.125 68.85 29.125 67.2 29.125 65.5 C27.145 65.005 27.145 65.005 25.125 64.5 C25.455 63.84 25.785 63.18 26.125 62.5 C28.105 62.995 28.105 62.995 30.125 63.5 C29.795 61.85 29.465 60.2 29.125 58.5 C27.145 58.005 27.145 58.005 25.125 57.5 C25.455 56.51 25.785 55.52 26.125 54.5 C28.125 55.5 30.125 56.5 32.125 57.5 C32.125 56.18 32.125 54.86 32.125 53.5 C31.34125 53.2525 30.5575 53.005 29.75 52.75 C26.80182892 51.34610901 26.2225223 50.49324263 25.125 47.5 C26.445 47.5 27.765 47.5 29.125 47.5 C29.455 47.83 29.785 48.16 30.125 48.5 C30.125 45.86 30.125 43.22 30.125 40.5 C28.805 40.83 27.485 41.16 26.125 41.5 C26.125 40.18 26.125 38.86 26.125 37.5 C26.785 37.5 27.445 37.5 28.125 37.5 C28.125 36.18 28.125 34.86 28.125 33.5 C26.64 33.005 26.64 33.005 25.125 32.5 C25.455 31.18 25.785 29.86 26.125 28.5 C24.805 28.83 23.485 29.16 22.125 29.5 C22.125 28.18 22.125 26.86 22.125 25.5 C21.80318228 22.17455019 21.02043737 21.39543737 18.5625 18.9375 C17.758125 18.133125 16.95375 17.32875 16.125 16.5 C16.125 15.51 16.125 14.52 16.125 13.5 C14.805 13.17 13.485 12.84 12.125 12.5 C12.125 11.51 12.125 10.52 12.125 9.5 C11.403125 9.438125 10.68125 9.37625 9.9375 9.3125 C6.26107273 8.25042101 4.77690232 6.21658286 2.125 3.5 C-2.05874314 0.91854146 -4.97192996 0.14978071 -9.875 0.5 C-9.875 -0.49 -9.875 -1.48 -9.875 -2.5 C-11.855 -2.5 -13.835 -2.5 -15.875 -2.5 C-16.205 -1.18 -16.535 0.14 -16.875 1.5 C-17.535 1.5 -18.195 1.5 -18.875 1.5 C-18.875 0.84 -18.875 0.18 -18.875 -0.5 C-19.55046875 -0.16226562 -20.2259375 0.17546875 -20.921875 0.5234375 C-28.875 4.5 -28.875 4.5 -31.078125 5.4765625 C-33.20599098 6.51064337 -33.20599098 6.51064337 -34.875 9.5 C-35.865 9.5 -36.855 9.5 -37.875 9.5 C-38.205 10.82 -38.535 12.14 -38.875 13.5 C-39.865 13.5 -40.855 13.5 -41.875 13.5 C-41.875 14.49 -41.875 15.48 -41.875 16.5 C-43.49839805 18.20884005 -45.16819053 19.87446717 -46.875 21.5 C-47.535 22.49 -48.195 23.48 -48.875 24.5 C-48.215 25.82 -47.555 27.14 -46.875 28.5 C-48.36 28.995 -48.36 28.995 -49.875 29.5 C-50.535 29.17 -51.195 28.84 -51.875 28.5 C-51.875 30.15 -51.875 31.8 -51.875 33.5 C-52.865 33.995 -52.865 33.995 -53.875 34.5 C-54.52713292 36.52463255 -54.52713292 36.52463255 -54.875 38.5 C-53.885 38.5 -52.895 38.5 -51.875 38.5 C-51.875 39.49 -51.875 40.48 -51.875 41.5 C-53.195 41.17 -54.515 40.84 -55.875 40.5 C-56.019375 41.221875 -56.16375 41.94375 -56.3125 42.6875 C-56.83333333 45.29166667 -57.35416667 47.89583333 -57.875 50.5 C-57.215 50.5 -56.555 50.5 -55.875 50.5 C-55.875 51.49 -55.875 52.48 -55.875 53.5 C-56.535 53.5 -57.195 53.5 -57.875 53.5 C-57.875 55.15 -57.875 56.8 -57.875 58.5 C-57.215 58.5 -56.555 58.5 -55.875 58.5 C-55.545 62.46 -55.215 66.42 -54.875 70.5 C-53.885 70.83 -52.895 71.16 -51.875 71.5 C-52.7095262 74.00357861 -53.66871992 76.16785852 -54.875 78.5 C-53.885 78.83 -52.895 79.16 -51.875 79.5 C-51.875 80.16 -51.875 80.82 -51.875 81.5 C-52.865 81.5 -53.855 81.5 -54.875 81.5 C-54.875 83.15 -54.875 84.8 -54.875 86.5 C-54.215 86.5 -53.555 86.5 -52.875 86.5 C-52.606875 85.7575 -52.33875 85.015 -52.0625 84.25 C-50.93270579 81.63363446 -49.66606798 79.69812889 -47.875 77.5 C-48.865 77.5 -49.855 77.5 -50.875 77.5 C-50.545 76.51 -50.215 75.52 -49.875 74.5 C-49.215 74.5 -48.555 74.5 -47.875 74.5 C-47.875 72.85 -47.875 71.2 -47.875 69.5 C-48.535 69.5 -49.195 69.5 -49.875 69.5 C-49.875 68.51 -49.875 67.52 -49.875 66.5 C-49.215 66.5 -48.555 66.5 -47.875 66.5 C-47.875 64.85 -47.875 63.2 -47.875 61.5 C-48.535 61.5 -49.195 61.5 -49.875 61.5 C-49.875 60.51 -49.875 59.52 -49.875 58.5 C-48.555 58.5 -47.235 58.5 -45.875 58.5 C-45.813125 57.819375 -45.75125 57.13875 -45.6875 56.4375 C-44.88097932 53.52161755 -44.07998617 52.31663069 -42.25 50 C-40.05905135 47.17922919 -40.05905135 47.17922919 -40.0625 43.5625 C-40.330625 42.881875 -40.59875 42.20125 -40.875 41.5 C-39.39 41.005 -39.39 41.005 -37.875 40.5 C-37.38 40.995 -37.38 40.995 -36.875 41.5 C-36.875 40.51 -36.875 39.52 -36.875 38.5 C-35.885 38.5 -34.895 38.5 -33.875 38.5 C-33.875 39.49 -33.875 40.48 -33.875 41.5 C-33.15183594 40.95859375 -33.15183594 40.95859375 -32.4140625 40.40625 C-31.78242187 39.9421875 -31.15078125 39.478125 -30.5 39 C-29.87351562 38.5359375 -29.24703125 38.071875 -28.6015625 37.59375 C-26.875 36.5 -26.875 36.5 -24.875 36.5 C-24.875 35.84 -24.875 35.18 -24.875 34.5 C-26.195 34.5 -27.515 34.5 -28.875 34.5 C-29.205 35.49 -29.535 36.48 -29.875 37.5 C-31.36 37.005 -31.36 37.005 -32.875 36.5 C-32.545 35.51 -32.215 34.52 -31.875 33.5 C-30.39 33.005 -30.39 33.005 -28.875 32.5 C-27.20789654 31.00014391 -27.20789654 31.00014391 -25.875 29.5 C-25.4625 30.304375 -25.05 31.10875 -24.625 31.9375 C-23.16081702 34.64973801 -23.16081702 34.64973801 -20.765625 35.16015625 C-20.14171875 35.27230469 -19.5178125 35.38445312 -18.875 35.5 C-19.5040625 35.87511719 -20.133125 36.25023437 -20.78125 36.63671875 C-22.57309222 37.7080461 -24.36059992 38.78664466 -26.14453125 39.87109375 C-27.76592352 40.8383621 -29.40433572 41.77924104 -31.07421875 42.66015625 C-38.21033097 46.5716991 -42.38747763 52.68418175 -45.3125 60.1875 C-46.10678796 64.12684733 -45.77131834 68.00195022 -45.625 72 C-45.52670562 78.14954206 -46.21621156 81.57250163 -50.171875 86.27734375 C-51.875 87.5 -51.875 87.5 -55.875 87.5 C-55.875 91.13 -55.875 94.76 -55.875 98.5 C-53.895 98.5 -51.915 98.5 -49.875 98.5 C-49.875 99.16 -49.875 99.82 -49.875 100.5 C-51.525 100.5 -53.175 100.5 -54.875 100.5 C-55.205 121.95 -55.535 143.4 -55.875 165.5 C-56.205 165.5 -56.535 165.5 -56.875 165.5 C-56.8904612 163.65623528 -56.8904612 163.65623528 -56.90623474 161.77522278 C-57.00396305 150.19512448 -57.10669669 138.61507998 -57.21433926 127.03506947 C-57.26951906 121.08158519 -57.32293123 115.12809595 -57.37231445 109.17456055 C-57.42003081 103.42979869 -57.47237634 97.68509601 -57.52794075 91.94040489 C-57.54833134 89.74796712 -57.56704982 87.55551314 -57.58407402 85.36304665 C-57.60819094 82.29381069 -57.63823566 79.22468601 -57.66967773 76.15551758 C-57.6754332 75.24777084 -57.68118866 74.34002411 -57.68711853 73.4047699 C-57.73504605 69.29261843 -57.93346034 65.52183918 -58.875 61.5 C-59.93221702 43.89127066 -56.87234583 28.55903679 -45.03564453 14.81689453 C-32.80194092 1.2281251 -17.72707358 -9.14293443 0 0 Z " fill="#5E554A" transform="translate(109.875,29.5)"/>
<path d="M0 0 C1.9375 0.375 1.9375 0.375 4 1 C4.33 1.66 4.66 2.32 5 3 C5.66 3.144375 6.32 3.28875 7 3.4375 C7.66 3.623125 8.32 3.80875 9 4 C9.33 4.99 9.66 5.98 10 7 C10.99 7.33 11.98 7.66 13 8 C13.33 8.99 13.66 9.98 14 11 C15.2375 12.2065625 15.2375 12.2065625 16.5 13.4375 C19.77821032 16.79766558 20 18.45185524 20 23 C20.99 23 21.98 23 23 23 C23 24.32 23 25.64 23 27 C23.66 27.33 24.32 27.66 25 28 C25 29.32 25 30.64 25 32 C24.01 32.495 24.01 32.495 23 33 C23 33.66 23 34.32 23 35 C24.32 35 25.64 35 27 35 C27.495 39.455 27.495 39.455 28 44 C26.35 43.34 24.7 42.68 23 42 C24.73944852 45.01907333 24.73944852 45.01907333 27.125 46.4375 C28.053125 47.2109375 28.053125 47.2109375 29 48 C29 49.32 29 50.64 29 52 C27.02 51.34 25.04 50.68 23 50 C23 50.66 23 51.32 23 52 C24.485 52.495 24.485 52.495 26 53 C26.495 55.475 26.495 55.475 27 58 C25.02 58.495 25.02 58.495 23 59 C24.485 59.495 24.485 59.495 26 60 C26 61.65 26 63.3 26 65 C25.01 65 24.02 65 23 65 C23 65.99 23 66.98 23 68 C23.99 68 24.98 68 26 68 C26 69.65 26 71.3 26 73 C25.01 73 24.02 73 23 73 C23 73.99 23 74.98 23 76 C23.99 76 24.98 76 26 76 C26 77.65 26 79.3 26 81 C21.97449681 79.6581656 21.11714364 77.5772427 19 74 C19 73.34 19 72.68 19 72 C19.66 72 20.32 72 21 72 C20.34 71.01 19.68 70.02 19 69 C18.875 66.3125 18.875 66.3125 19 64 C19.66 64 20.32 64 21 64 C21 63.01 21 62.02 21 61 C20.34 61 19.68 61 19 61 C18.505 58.525 18.505 58.525 18 56 C18.99 56 19.98 56 21 56 C21 55.01 21 54.02 21 53 C19.68 53 18.36 53 17 53 C16.773125 52.319375 16.54625 51.63875 16.3125 50.9375 C14.64427643 47.20385676 12.44270392 44.27836579 10 41 C11.8125 39 11.8125 39 14 37 C14.99 37 15.98 37 17 37 C17 37.99 17 38.98 17 40 C16.01 40.495 16.01 40.495 15 41 C14.67 41.99 14.34 42.98 14 44 C14.78375 43.34 15.5675 42.68 16.375 42 C19 40 19 40 21 40 C21 38.68 21 37.36 21 36 C19.68 35.67 18.36 35.34 17 35 C17 34.34 17 33.68 17 33 C16.01 33 15.02 33 14 33 C14 33.99 14 34.98 14 36 C11.525 36.495 11.525 36.495 9 37 C9 37.66 9 38.32 9 39 C7.68 38.34 6.36 37.68 5 37 C6.485 36.505 6.485 36.505 8 36 C8 34.35 8 32.7 8 31 C9.65 31.33 11.3 31.66 13 32 C13 31.01 13 30.02 13 29 C13.99 29 14.98 29 16 29 C16 27.68 16 26.36 16 25 C14.0399719 23.36323743 14.0399719 23.36323743 12 22 C12 21.34 12 20.68 12 20 C10.68 19.67 9.36 19.34 8 19 C8 18.34 8 17.68 8 17 C7.360625 16.896875 6.72125 16.79375 6.0625 16.6875 C5.0415625 16.3471875 5.0415625 16.3471875 4 16 C3.67 15.01 3.34 14.02 3 13 C1.35 13 -0.3 13 -2 13 C-2 13.99 -2 14.98 -2 16 C-2.99 16.33 -3.98 16.66 -5 17 C-7.48887372 12.31506124 -6.85687773 9.0555786 -6 4 C-5.38125 3.896875 -4.7625 3.79375 -4.125 3.6875 C-1.63473516 3.12474627 -1.63473516 3.12474627 0 0 Z " fill="#D3BAA3" transform="translate(113,35)"/>
<path d="M0 0 C2.31 0 4.62 0 7 0 C7.33 0.99 7.66 1.98 8 3 C8.350625 2.505 8.70125 2.01 9.0625 1.5 C12.0015795 -0.77541639 14.39426955 -0.32194022 18 0 C18.99 0.66 19.98 1.32 21 2 C21 2.66 21 3.32 21 4 C21.680625 3.34 22.36125 2.68 23.0625 2 C26.76272533 -0.51930235 28.6031656 -0.7066341 33 0 C35.6611263 1.64717891 36.58657175 2.30488114 38 5 C38.72561574 9.68187589 38.69945158 14.33206561 38.6875 19.0625 C38.70408642 21.5951186 38.72848443 24.1277014 38.76171875 26.66015625 C38.76131592 27.78043213 38.76091309 28.90070801 38.76049805 30.05493164 C38.99651407 32.95713475 39.34477064 34.62247595 41 37 C43.55519921 37.81171228 43.55519921 37.81171228 46 38 C46 38.66 46 39.32 46 40 C38.78164826 40.61172472 38.78164826 40.61172472 35.125 37.75 C31.78655905 33.42966465 30.75586386 30.66235472 30.62109375 25.17578125 C30.56985352 23.50999023 30.56985352 23.50999023 30.51757812 21.81054688 C30.49115234 20.65619141 30.46472656 19.50183594 30.4375 18.3125 C30.37785535 16.0168153 30.31427534 13.72122826 30.24609375 11.42578125 C30.22216553 10.40911377 30.1982373 9.39244629 30.17358398 8.3449707 C30.25971357 6.04205444 30.25971357 6.04205444 29 5 C26.5 4.83333333 26.5 4.83333333 24 5 C22.70454552 6.07029129 22.70454552 6.07029129 22.88647461 8.59204102 C22.89432983 10.28091431 22.89432983 10.28091431 22.90234375 12.00390625 C22.90717773 13.82631836 22.90717773 13.82631836 22.91210938 15.68554688 C22.92048828 16.96494141 22.92886719 18.24433594 22.9375 19.5625 C22.94201172 20.84576172 22.94652344 22.12902344 22.95117188 23.45117188 C22.96300455 26.63416022 22.97948932 29.81705762 23 33 C20.36 33 17.72 33 15 33 C15.00523682 32.18732666 15.01047363 31.37465332 15.01586914 30.53735352 C15.03656994 26.87907678 15.04963803 23.22081233 15.0625 19.5625 C15.07087891 18.28310547 15.07925781 17.00371094 15.08789062 15.68554688 C15.09111328 14.47060547 15.09433594 13.25566406 15.09765625 12.00390625 C15.10289307 10.87799072 15.10812988 9.7520752 15.11352539 8.59204102 C15.29545448 6.07029129 15.29545448 6.07029129 14 5 C11.5 4.83333333 11.5 4.83333333 9 5 C7.70454552 6.07029129 7.70454552 6.07029129 7.88647461 8.59204102 C7.89171143 9.71795654 7.89694824 10.84387207 7.90234375 12.00390625 C7.90556641 13.21884766 7.90878906 14.43378906 7.91210938 15.68554688 C7.92048828 16.96494141 7.92886719 18.24433594 7.9375 19.5625 C7.94201172 20.84576172 7.94652344 22.12902344 7.95117188 23.45117188 C7.96300455 26.63416022 7.97948932 29.81705762 8 33 C5.36 33 2.72 33 0 33 C0 22.11 0 11.22 0 0 Z " fill="#121212" transform="translate(11,209)"/>
<path d="M0 0 C0.66 0 1.32 0 2 0 C2.495 0.70125 2.99 1.4025 3.5 2.125 C7.41549555 6.62781988 12.60656899 9.32049256 17.92578125 11.953125 C25.33837167 15.70202131 30.72233288 22.03593417 33.45458984 29.84082031 C34.3717435 33.47166496 34.22981529 37.0282692 34.1875 40.75 C34.32014062 48.84775161 36.08779099 53.18952399 41.28515625 59.51953125 C43.21674284 62.31351185 43.37557922 63.67940279 43 67 C41.35 67 39.7 67 38 67 C37.65388672 66.02160156 37.65388672 66.02160156 37.30078125 65.0234375 C36.97464844 64.14945312 36.64851563 63.27546875 36.3125 62.375 C35.99925781 61.51648438 35.68601562 60.65796875 35.36328125 59.7734375 C34.0764349 56.80126555 34.0764349 56.80126555 31.359375 54.25 C28.50790738 50.97810008 28.57622743 48.32564174 28.75585938 44.109375 C28.81580078 43.28953125 28.87574219 42.4696875 28.9375 41.625 C29.49248124 33.58734064 28.48130132 28.15779874 23.2109375 21.86328125 C18.83501137 18.16702025 14.46926484 15.54877578 9.27734375 13.1328125 C6.52728249 11.7648575 4.27877415 10.05089673 2 8 C-0.85173825 9.00649585 -3.17096581 10.11530253 -5.6875 11.8125 C-8.4698243 13.64988397 -10.97932286 14.90496085 -14 16.25 C-20.57617861 19.47381087 -23.36041039 24.10339169 -26.875 30.3125 C-28.68296668 36.23861302 -28.73756305 42.26048011 -27.125 48.25 C-27 51 -27 51 -28.1640625 52.59765625 C-29.24036414 53.76144053 -30.32944725 54.91350808 -31.4296875 56.0546875 C-34.03746008 59.28521174 -34.97400153 63.03100592 -36 67 C-37.65 67 -39.3 67 -41 67 C-40.88739444 61.82014444 -39.75035448 59.49412698 -36.4375 55.5 C-32.24013516 49.91486545 -32.61885933 45.39675171 -32.92578125 38.6171875 C-33.09573087 30.33437992 -30.20828654 24.23686888 -24.9453125 17.9609375 C-21.9588776 14.95051517 -18.71072078 13.00166121 -15 11 C-9.3209622 7.76103808 -4.4843532 4.76462528 0 0 Z " fill="#E3C8AE" transform="translate(96,59)"/>
<path d="M0 0 C1.32 0 2.64 0 4 0 C4 1.32 4 2.64 4 4 C5.32 4 6.64 4 8 4 C8 5.32 8 6.64 8 8 C9.32 8 10.64 8 12 8 C12.33 8.66 12.66 9.32 13 10 C16.02934491 10.65772428 16.02934491 10.65772428 19 11 C18.67 10.01 18.34 9.02 18 8 C19.32 8 20.64 8 22 8 C22.33 8.99 22.66 9.98 23 11 C23.99 11.33 24.98 11.66 26 12 C26 12.99 26 13.98 26 15 C25.01 15.495 25.01 15.495 24 16 C24.99 16.66 25.98 17.32 27 18 C27 17.34 27 16.68 27 16 C28.65 15.67 30.3 15.34 32 15 C32 14.01 32 13.02 32 12 C32.99 12 33.98 12 35 12 C35.495 12.99 35.495 12.99 36 14 C36.99 14.33 37.98 14.66 39 15 C39 16.32 39 17.64 39 19 C38.360625 19.103125 37.72125 19.20625 37.0625 19.3125 C36.381875 19.539375 35.70125 19.76625 35 20 C34.505 21.485 34.505 21.485 34 23 C33.34 23 32.68 23 32 23 C32.33 21.68 32.66 20.36 33 19 C33.66 19 34.32 19 35 19 C35 18.01 35 17.02 35 16 C32.44496043 17.28288757 32.44496043 17.28288757 30 19 C29.67594069 22.26211673 29.67594069 22.26211673 32.5 24.9375 C35 28 35 28 35 32 C36.32 32 37.64 32 39 32 C39 32.99 39 33.98 39 35 C38.01 35 37.02 35 36 35 C36.495 37.475 36.495 37.475 37 40 C37.66 40 38.32 40 39 40 C39 40.99 39 41.98 39 43 C38.34 43 37.68 43 37 43 C37.66 45.64 38.32 48.28 39 51 C38.34 51 37.68 51 37 51 C37.78551657 52.31618998 38.5786237 53.62785228 39.375 54.9375 C39.81585938 55.66839844 40.25671875 56.39929688 40.7109375 57.15234375 C41.8773984 59.13772272 41.8773984 59.13772272 44 60 C44 58.35 44 56.7 44 55 C43.01 55 42.02 55 41 55 C41 54.01 41 53.02 41 52 C41.99 52 42.98 52 44 52 C44 50.35 44 48.7 44 47 C43.01 47 42.02 47 41 47 C41 46.01 41 45.02 41 44 C41.99 44 42.98 44 44 44 C44 42.35 44 40.7 44 39 C42.68 38.67 41.36 38.34 40 38 C40.495 37.01 40.495 37.01 41 36 C42.32 36.33 43.64 36.66 45 37 C44.67 35.35 44.34 33.7 44 32 C42.68 31.67 41.36 31.34 40 31 C40.495 29.515 40.495 29.515 41 28 C43 29 45 30 47 31 C47 29.68 47 28.36 47 27 C46.21625 26.7525 45.4325 26.505 44.625 26.25 C41.67682892 24.84610901 41.0975223 23.99324263 40 21 C41.32 21 42.64 21 44 21 C44.33 21.33 44.66 21.66 45 22 C45 19.36 45 16.72 45 14 C43.68 14.33 42.36 14.66 41 15 C41 13.68 41 12.36 41 11 C41.66 11 42.32 11 43 11 C43 9.02 43 7.04 43 5 C48.95767497 11.22847838 48.21344735 20.54788814 48.16796875 28.5703125 C48 32 48 32 47.50233459 35.09095764 C46.9045752 39.74257199 46.82430797 44.28998802 46.79467773 48.97436523 C46.78477814 49.95074448 46.77487854 50.92712372 46.76467896 51.93309021 C46.73323906 55.14156722 46.70837612 58.350059 46.68359375 61.55859375 C46.66300909 63.79061759 46.64201223 66.02263767 46.62062073 68.25465393 C46.56555625 74.11535584 46.51607833 79.97609202 46.46777344 85.83685303 C46.41744403 91.82290682 46.36181779 97.80891115 46.30664062 103.79492188 C46.19925027 115.52990561 46.09776318 127.26493239 46 139 C45.67 139 45.34 139 45 139 C45 117.55 45 96.1 45 74 C43.02 74 41.04 74 39 74 C39 72.68 39 71.36 39 70 C40.65 70 42.3 70 44 70 C43.04724662 65.13037159 41.64667849 62.48195899 38.4375 58.6875 C34.35112195 53.20248534 34.22446335 48.20833778 34.26342773 41.59643555 C34.27214517 32.75211172 31.5287375 26.63708452 25.51171875 20.1640625 C21.737535 16.91227743 17.51484401 14.851172 13.078125 12.6328125 C9.09928661 10.52221041 6.17757194 8.17757194 3 5 C3 4.34 3 3.68 3 3 C2.01 3.33 1.02 3.66 0 4 C0 2.68 0 1.36 0 0 Z " fill="#463D34" transform="translate(95,56)"/>
<path d="M0 0 C0.66 0.33 1.32 0.66 2 1 C2 61.39 2 121.78 2 184 C1.01 184 0.02 184 -1 184 C-1.02332627 160.15703607 -1.04097784 136.31407384 -1.05181217 112.47110081 C-1.05697571 101.40122154 -1.0640195 90.33134934 -1.07543945 79.26147461 C-1.08538454 69.61668946 -1.09185301 59.97190943 -1.09408849 50.32711929 C-1.0953959 45.21693439 -1.09848364 40.10676415 -1.10573006 34.99658394 C-1.1124875 30.19257441 -1.11461753 25.38858567 -1.11310768 20.58457184 C-1.11338413 18.81601537 -1.11539088 17.04745825 -1.11920547 15.27890587 C-1.12413843 12.87512527 -1.12299978 10.47142443 -1.12025452 8.06764221 C-1.12316736 7.35851152 -1.1260802 6.64938082 -1.12908131 5.91876131 C-1.11412121 1.11412121 -1.11412121 1.11412121 0 0 Z " fill="#F3DBC2" transform="translate(31,11)"/>
<path d="M0 0 C4.10601848 1.77305344 6.66278175 4.19119988 9 8 C9.88631297 13.98261252 8.38583676 17.24152672 5 22 C1.3812094 25.20521453 -2.16094447 25.57394685 -6.84765625 25.42578125 C-10.3449421 24.73394067 -11.89224818 22.74646449 -14 20 C-16.68761942 15.96857086 -16.92537664 12.73667363 -16 8 C-11.96402009 1.3146345 -7.81369887 -0.82804131 0 0 Z " fill="#131313" transform="translate(125,217)"/>
<path d="M0 0 C4.42198912 2.18111626 8.71288947 4.5663927 13 7 C13.69867188 7.3815625 14.39734375 7.763125 15.1171875 8.15625 C21.74475085 11.97290127 27.88993872 17.42676025 30 25 C30.08526217 28.11169835 29.89861394 31.20454329 29.75 34.3125 C29.41742759 42.07479217 29.41742759 42.07479217 32.875 48.8125 C33.4215625 49.36550781 33.968125 49.91851562 34.53125 50.48828125 C36.6500585 52.66907617 37.27520602 55.10082408 38 58 C35.29440376 55.43995799 33.01928479 52.63838651 30.75 49.6875 C30.02296875 48.76324219 29.2959375 47.83898437 28.546875 46.88671875 C26.63500999 43.31886965 27.01342269 41.84918504 28 38 C28.7799617 30.07252045 27.72829381 22.67634566 22.6328125 16.28515625 C18.04150208 11.97937508 12.24506774 9.28133905 6.6953125 6.41796875 C4 5 4 5 3 4 C2.67 45.25 2.34 86.5 2 129 C1.34 129 0.68 129 0 129 C-0.33 87.75 -0.66 46.5 -1 4 C-17.84056146 12.16690395 -17.84056146 12.16690395 -26 26 C-26.09523918 28.12327356 -26.12986362 30.24959711 -26.125 32.375 C-26.12757812 33.49648437 -26.13015625 34.61796875 -26.1328125 35.7734375 C-26.11255043 38.94101195 -26.11255043 38.94101195 -25.3203125 41.6953125 C-25 44 -25 44 -26.109375 45.84375 C-26.65078125 46.3903125 -27.1921875 46.936875 -27.75 47.5 C-30.26696654 50.17500863 -32.22995023 52.75490875 -34 56 C-34.66 55.67 -35.32 55.34 -36 55 C-35.59007812 54.39671875 -35.18015625 53.7934375 -34.7578125 53.171875 C-34.21898437 52.37265625 -33.68015625 51.5734375 -33.125 50.75 C-32.59132812 49.96109375 -32.05765625 49.1721875 -31.5078125 48.359375 C-28.73315149 44.51653913 -28.73315149 44.51653913 -28.34765625 40.0625 C-28.67056641 39.0415625 -28.67056641 39.0415625 -29 38 C-30.16199045 29.05708615 -27.92858742 22.4752072 -23 15 C-18.72400264 9.76652741 -12.79515473 7.2023635 -6.76953125 4.39453125 C-4.25639356 3.12910085 -2.18099711 1.76457761 0 0 Z " fill="#213643" transform="translate(96,66)"/>
<path d="M0 0 C0.70116943 0.31324219 1.40233887 0.62648438 2.12475586 0.94921875 C8.45374334 3.88154579 13.96547795 7.50958351 19.3125 12 C19.94285156 12.51820312 20.57320313 13.03640625 21.22265625 13.5703125 C31.65491017 23.02825569 39.57238933 38.11426841 41.3125 52 C41.68358122 59.92215255 41.78850632 67.41723065 39.3125 75 C38.6525 75 37.9925 75 37.3125 75 C37.47363281 74.18144531 37.63476562 73.36289063 37.80078125 72.51953125 C39.1759564 63.06126552 39.4058073 52.13931702 36.3125 43 C36.044375 42.2059375 35.77625 41.411875 35.5 40.59375 C29.31809035 23.90259396 18.30039771 11.80318451 2.60546875 3.58203125 C-3.98594345 0.70672231 -10.5987606 -1.16821126 -17.66796875 0.8515625 C-36.16746029 8.12005727 -48.22418453 20.88528086 -56.42578125 38.7265625 C-59.2476062 46.04758204 -59.98570293 52.35248878 -59.875 60.125 C-59.87435547 60.99253906 -59.87371094 61.86007813 -59.87304688 62.75390625 C-59.84278911 67.67939042 -59.84278911 67.67939042 -59.17977905 72.55029297 C-58.55498104 76.92864321 -58.60121966 81.17039077 -58.66577148 85.58544922 C-58.67537903 86.53242172 -58.68498657 87.47939423 -58.69488525 88.45506287 C-58.72775257 91.57168299 -58.7681314 94.68815751 -58.80859375 97.8046875 C-58.83290686 99.9708709 -58.85674982 102.13705963 -58.88014221 104.30325317 C-58.9428646 109.99473145 -59.01196468 115.68611505 -59.08239746 121.37750244 C-59.15318803 127.18912457 -59.21794077 133.00081363 -59.28320312 138.8125 C-59.41206274 150.20840691 -59.54766075 161.60422291 -59.6875 173 C-60.0175 173 -60.3475 173 -60.6875 173 C-60.69780746 171.77304413 -60.70811493 170.54608826 -60.71873474 169.2819519 C-60.81650733 157.71688168 -60.9192451 146.15186478 -61.02683926 134.58688164 C-61.08199443 128.64127299 -61.13540256 122.69565937 -61.18481445 116.75 C-61.23256726 111.0117178 -61.28491394 105.27349419 -61.34044075 99.53528214 C-61.36081487 97.34646184 -61.37953599 95.15762551 -61.39657402 92.9687767 C-61.42072759 89.9021399 -61.45076703 86.83561284 -61.48217773 83.76904297 C-61.4879332 82.86489151 -61.49368866 81.96074005 -61.49961853 81.02919006 C-61.55150446 76.57012266 -61.8485042 72.39492528 -62.6875 68 C-63.73000644 49.19478773 -59.24059811 32.85060067 -46.84765625 18.30859375 C-34.858657 5.4957573 -17.96796551 -8.12893158 0 0 Z " fill="#64594D" transform="translate(107.6875,22)"/>
<path d="M0 0 C4.75489152 5.58182918 4.14115062 11.68061235 4.11352539 18.65551758 C4.11367142 19.6218512 4.11381744 20.58818481 4.1139679 21.58380127 C4.11327248 24.77073427 4.1054974 27.95760848 4.09765625 31.14453125 C4.09579075 33.35698922 4.09436747 35.5694476 4.09336853 37.78190613 C4.08955372 43.59993636 4.07973225 49.41794156 4.06866455 55.23596191 C4.05842818 61.17488262 4.05386614 67.11380738 4.04882812 73.05273438 C4.03810907 84.7018339 4.02104506 96.35091487 4 108 C2.68 108 1.36 108 0 108 C-0.15377025 94.06626451 -0.30173995 80.13247789 -0.4429636 66.19860935 C-0.50870286 59.72929811 -0.57632868 53.26001781 -0.64819336 46.79077148 C-0.71741471 40.55333798 -0.78177541 34.31587189 -0.84269524 28.07835197 C-0.86686233 25.69278056 -0.89281253 23.30722656 -0.92053413 20.9216938 C-0.9589171 17.59308727 -0.99108935 14.26447652 -1.02172852 10.93579102 C-1.03467453 9.93885727 -1.04762054 8.94192352 -1.06095886 7.91477966 C-1.06799835 7.01309052 -1.07503784 6.11140137 -1.08229065 5.18238831 C-1.09058679 4.3942553 -1.09888292 3.6061223 -1.10743046 2.79410648 C-1 1 -1 1 0 0 Z " fill="#ECD2B8" transform="translate(49,87)"/>
<path d="M0 0 C1.58206422 0.00574487 3.16410406 0.01876032 4.74609375 0.03515625 C7.53046875 0.05578125 10.31484375 0.07640625 13.18359375 0.09765625 C13.18359375 7.02765625 13.18359375 13.95765625 13.18359375 21.09765625 C7.24359375 21.09765625 1.30359375 21.09765625 -4.81640625 21.09765625 C-4.84324061 17.78510299 -4.86316405 14.47276442 -4.87890625 11.16015625 C-4.88728516 10.21462891 -4.89566406 9.26910156 -4.90429688 8.29492188 C-4.90751953 7.39580078 -4.91074219 6.49667969 -4.9140625 5.5703125 C-4.91929932 4.73765869 -4.92453613 3.90500488 -4.92993164 3.04711914 C-4.71983797 -0.56061836 -3.77517197 0.09660113 0 0 Z " fill="#754921" transform="translate(104.81640625,130.90234375)"/>
<path d="M0 0 C0.66 1.65 1.32 3.3 2 5 C1.01 5.495 1.01 5.495 0 6 C-0.66 5.67 -1.32 5.34 -2 5 C-2.38218767 6.65614657 -2.71395102 8.32457024 -3 10 C-2.67 10.33 -2.34 10.66 -2 11 C-1.01 10.67 -0.02 10.34 1 10 C2.02104551 10.97850195 3.0206121 11.97980427 4 13 C4 13.33 4 13.66 4 14 C5.98491642 13.73323796 5.98491642 13.73323796 8 13 C8.33 12.01 8.66 11.02 9 10 C9.66 10.33 10.32 10.66 11 11 C11 12.32 11 13.64 11 15 C12.32 14.67 13.64 14.34 15 14 C15 18 15 18 13 21 C13.66 21.66 14.32 22.32 15 23 C14.01 23 13.02 23 12 23 C12.061875 23.763125 12.12375 24.52625 12.1875 25.3125 C12 28 12 28 10.875 29.75 C8.34022139 31.43985241 5.99424517 31.66730609 3 32 C2.67 31.01 2.34 30.02 2 29 C2.66 28.34 3.32 27.68 4 27 C3.34 25.35 2.68 23.7 2 22 C1.01 22 0.02 22 -1 22 C-0.67 20.02 -0.34 18.04 0 16 C-1.65 16.66 -3.3 17.32 -5 18 C-5 16.68 -5 15.36 -5 14 C-5.99 14 -6.98 14 -8 14 C-8.99 14 -9.98 14 -11 14 C-11.33 15.32 -11.66 16.64 -12 18 C-12.99 17.67 -13.98 17.34 -15 17 C-15.33 16.34 -15.66 15.68 -16 15 C-16.66 14.67 -17.32 14.34 -18 14 C-17.01 13.67 -16.02 13.34 -15 13 C-15 12.01 -15 11.02 -15 10 C-14.01 9.67 -13.02 9.34 -12 9 C-11.67 8.01 -11.34 7.02 -11 6 C-10.01 5.67 -9.02 5.34 -8 5 C-7.34 4.01 -6.68 3.02 -6 2 C-3.83252916 0.71306419 -2.53199972 0 0 0 Z " fill="#A99483" transform="translate(83,33)"/>
<path d="M0 0 C0.99 0 1.98 0 3 0 C3 0.99 3 1.98 3 3 C2.01 3.495 2.01 3.495 1 4 C1 4.66 1 5.32 1 6 C2.32 6 3.64 6 5 6 C5.33 8.97 5.66 11.94 6 15 C4.35 14.34 2.7 13.68 1 13 C2.73944852 16.01907333 2.73944852 16.01907333 5.125 17.4375 C5.74375 17.953125 6.3625 18.46875 7 19 C7 20.32 7 21.64 7 23 C5.02 22.34 3.04 21.68 1 21 C1 21.66 1 22.32 1 23 C1.99 23.33 2.98 23.66 4 24 C4.33 25.65 4.66 27.3 5 29 C3.68 29.33 2.36 29.66 1 30 C1.99 30.33 2.98 30.66 4 31 C4 32.65 4 34.3 4 36 C3.01 36 2.02 36 1 36 C1 36.99 1 37.98 1 39 C1.99 39 2.98 39 4 39 C4 40.65 4 42.3 4 44 C3.01 44 2.02 44 1 44 C1 44.99 1 45.98 1 47 C1.99 47 2.98 47 4 47 C4 48.65 4 50.3 4 52 C-0.02550319 50.6581656 -0.88285636 48.5772427 -3 45 C-3 44.34 -3 43.68 -3 43 C-2.34 43 -1.68 43 -1 43 C-1.66 42.01 -2.32 41.02 -3 40 C-3.125 37.3125 -3.125 37.3125 -3 35 C-2.34 35 -1.68 35 -1 35 C-1 34.01 -1 33.02 -1 32 C-1.66 32 -2.32 32 -3 32 C-3.33 30.35 -3.66 28.7 -4 27 C-3.01 27 -2.02 27 -1 27 C-1 26.01 -1 25.02 -1 24 C-2.32 24 -3.64 24 -5 24 C-5.3403125 22.9790625 -5.3403125 22.9790625 -5.6875 21.9375 C-7.35572357 18.20385676 -9.55729608 15.27836579 -12 12 C-10.1875 10 -10.1875 10 -8 8 C-7.01 8 -6.02 8 -5 8 C-5 8.99 -5 9.98 -5 11 C-5.99 11.495 -5.99 11.495 -7 12 C-7.33 12.99 -7.66 13.98 -8 15 C-6.824375 14.01 -6.824375 14.01 -5.625 13 C-3 11 -3 11 -1 11 C-1 9.68 -1 8.36 -1 7 C-1.99 7 -2.98 7 -4 7 C-4 6.01 -4 5.02 -4 4 C-3.01 3.67 -2.02 3.34 -1 3 C-0.67 2.01 -0.34 1.02 0 0 Z " fill="#DAC0A9" transform="translate(135,64)"/>
<path d="M0 0 C1.65 0 3.3 0 5 0 C5 21.12 5 42.24 5 64 C3.35 64 1.7 64 0 64 C0 42.88 0 21.76 0 0 Z " fill="#3D83AB" transform="translate(134,131)"/>
<path d="M0 0 C1.65 0 3.3 0 5 0 C5 21.12 5 42.24 5 64 C3.35 64 1.7 64 0 64 C0 42.88 0 21.76 0 0 Z " fill="#4391BA" transform="translate(55,131)"/>
<path d="M0 0 C2.64 0 5.28 0 8 0 C8 8.25 8 16.5 8 25 C4.33333333 25 0.66666667 25 -3 25 C-3.969375 25.0825 -4.93875 25.165 -5.9375 25.25 C-9 25 -9 25 -11.17578125 23.625 C-14.00990291 19.54677783 -13.42607281 15.58523015 -13.25 10.75 C-13.23195312 9.81414062 -13.21390625 8.87828125 -13.1953125 7.9140625 C-13.14825673 5.60832985 -13.08253713 3.30469055 -13 1 C-11.02 1 -9.04 1 -7 1 C-6.93941406 2.27617187 -6.87882813 3.55234375 -6.81640625 4.8671875 C-6.73200432 6.53647016 -6.64735614 8.20574037 -6.5625 9.875 C-6.52318359 10.71675781 -6.48386719 11.55851563 -6.44335938 12.42578125 C-6.40146484 13.23144531 -6.35957031 14.03710938 -6.31640625 14.8671875 C-6.27974854 15.61081543 -6.24309082 16.35444336 -6.20532227 17.12060547 C-6.10044135 19.08864312 -6.10044135 19.08864312 -5 21 C-3.35 20.67 -1.7 20.34 0 20 C0 13.4 0 6.8 0 0 Z " fill="#141414" transform="translate(151,217)"/>
<path d="M0 0 C0.66 0.66 1.32 1.32 2 2 C1.67 2.99 1.34 3.98 1 5 C2.65 4.67 4.3 4.34 6 4 C5.67 5.98 5.34 7.96 5 10 C6.32 9.67 7.64 9.34 9 9 C9.66 11.31 10.32 13.62 11 16 C10.01 16.33 9.02 16.66 8 17 C7.34 16.34 6.68 15.68 6 15 C5.01 16.485 5.01 16.485 4 18 C1.8359375 18.29296875 1.8359375 18.29296875 -0.625 18.1875 C-1.85089844 18.14689453 -1.85089844 18.14689453 -3.1015625 18.10546875 C-3.72804688 18.07066406 -4.35453125 18.03585938 -5 18 C-5.33 19.32 -5.66 20.64 -6 22 C-7.98 21.34 -9.96 20.68 -12 20 C-12.33 18.35 -12.66 16.7 -13 15 C-11.68 14.34 -10.36 13.68 -9 13 C-9 12.01 -9 11.02 -9 10 C-9.33 10.33 -9.66 10.66 -10 11 C-12.33944736 10.71269945 -14.6739143 10.38063221 -17 10 C-13.55384615 3.23076923 -13.55384615 3.23076923 -10.75 2.0625 C-10.1725 2.041875 -9.595 2.02125 -9 2 C-8.67 2.99 -8.34 3.98 -8 5 C-7.34 5 -6.68 5 -6 5 C-5.67 4.01 -5.34 3.02 -5 2 C-2.4375 0.8125 -2.4375 0.8125 0 0 Z " fill="#D7BDA6" transform="translate(77,45)"/>
<path d="M0 0 C7.03500867 -0.47694974 7.03500867 -0.47694974 10.71875 1.34375 C14.23270476 5.43534116 13.78115467 9.51881315 13.8125 14.75 C13.83763672 15.73355469 13.86277344 16.71710938 13.88867188 17.73046875 C13.94749661 20.15404766 13.98380919 22.57582278 14 25 C10.33333333 25 6.66666667 25 3 25 C2.030625 25.103125 1.06125 25.20625 0.0625 25.3125 C-3 25 -3 25 -5.375 23 C-7.44631537 19.17603317 -7.98710427 16.25742362 -7 12 C-4.875 9 -4.875 9 -2 7 C1.3125 6.6875 1.3125 6.6875 4 7 C3.01 7.7734375 3.01 7.7734375 2 8.5625 C-0.67808262 11.82641319 -0.38111155 13.88399525 0 18 C0.33 18.66 0.66 19.32 1 20 C2.65 20 4.3 20 6 20 C6.05383848 17.54137599 6.09359038 15.0839245 6.125 12.625 C6.14175781 11.92632812 6.15851563 11.22765625 6.17578125 10.5078125 C6.19344267 8.67102514 6.10303261 6.83398037 6 5 C3.64046906 2.64046906 2.22104383 2.50858587 -1 2 C-0.67 1.34 -0.34 0.68 0 0 Z " fill="#101010" transform="translate(60,217)"/>
<path d="M0 0 C3.93601567 -0.38588389 6.27310921 -0.44245526 9.6953125 1.640625 C13.88833036 6.15009704 12.70198529 13.32922292 12.6875 19.0625 C12.70408642 21.5951186 12.72848443 24.1277014 12.76171875 26.66015625 C12.7611145 28.34057007 12.7611145 28.34057007 12.76049805 30.05493164 C12.99651407 32.95713475 13.34477064 34.62247595 15 37 C17.55519921 37.81171228 17.55519921 37.81171228 20 38 C20 38.66 20 39.32 20 40 C12.78164826 40.61172472 12.78164826 40.61172472 9.125 37.75 C5.80713274 33.45628942 4.75669523 30.69762223 4.62109375 25.24609375 C4.56985352 23.59383789 4.56985352 23.59383789 4.51757812 21.90820312 C4.49115234 20.76287109 4.46472656 19.61753906 4.4375 18.4375 C4.37760356 16.16525827 4.31397476 13.89311097 4.24609375 11.62109375 C4.21020142 10.11180298 4.21020142 10.11180298 4.17358398 8.57202148 C4.10037654 5.88174734 4.10037654 5.88174734 3 3 C1.68 3 0.36 3 -1 3 C-0.67 2.01 -0.34 1.02 0 0 Z " fill="#222222" transform="translate(37,209)"/>
<path d="M0 0 C0.65685791 0.33878174 1.31371582 0.67756348 1.99047852 1.02661133 C2.68665283 1.38408447 3.38282715 1.74155762 4.10009766 2.10986328 C15.00590523 7.93143724 23.29583779 16.62969862 29.11547852 27.52661133 C29.86157227 31.42504883 29.86157227 31.42504883 30.11547852 34.52661133 C28.63047852 34.03161133 28.63047852 34.03161133 27.11547852 33.52661133 C27.44547852 32.20661133 27.77547852 30.88661133 28.11547852 29.52661133 C26.79547852 29.85661133 25.47547852 30.18661133 24.11547852 30.52661133 C24.11547852 29.20661133 24.11547852 27.88661133 24.11547852 26.52661133 C23.79366079 23.20116152 23.01091588 22.42204869 20.55297852 19.96411133 C19.74860352 19.15973633 18.94422852 18.35536133 18.11547852 17.52661133 C18.11547852 16.53661133 18.11547852 15.54661133 18.11547852 14.52661133 C16.79547852 14.19661133 15.47547852 13.86661133 14.11547852 13.52661133 C14.11547852 12.53661133 14.11547852 11.54661133 14.11547852 10.52661133 C13.39360352 10.46473633 12.67172852 10.40286133 11.92797852 10.33911133 C8.25155125 9.27703234 6.76738084 7.24319419 4.11547852 4.52661133 C-0.06826463 1.94515279 -2.98145144 1.17639204 -7.88452148 1.52661133 C-7.88452148 0.53661133 -7.88452148 -0.45338867 -7.88452148 -1.47338867 C-9.86452148 -1.47338867 -11.84452148 -1.47338867 -13.88452148 -1.47338867 C-14.21452148 -0.15338867 -14.54452148 1.16661133 -14.88452148 2.52661133 C-15.54452148 2.52661133 -16.20452148 2.52661133 -16.88452148 2.52661133 C-16.88452148 1.86661133 -16.88452148 1.20661133 -16.88452148 0.52661133 C-17.55999023 0.8643457 -18.23545898 1.20208008 -18.93139648 1.55004883 C-26.88452148 5.52661133 -26.88452148 5.52661133 -29.08764648 6.50317383 C-31.21551246 7.5372547 -31.21551246 7.5372547 -32.88452148 10.52661133 C-33.87452148 10.52661133 -34.86452148 10.52661133 -35.88452148 10.52661133 C-36.21452148 11.84661133 -36.54452148 13.16661133 -36.88452148 14.52661133 C-37.87452148 14.52661133 -38.86452148 14.52661133 -39.88452148 14.52661133 C-39.88452148 15.51661133 -39.88452148 16.50661133 -39.88452148 17.52661133 C-41.50791953 19.23545138 -43.17771201 20.9010785 -44.88452148 22.52661133 C-45.54452148 23.51661133 -46.20452148 24.50661133 -46.88452148 25.52661133 C-46.22452148 26.84661133 -45.56452148 28.16661133 -44.88452148 29.52661133 C-46.36952148 30.02161133 -46.36952148 30.02161133 -47.88452148 30.52661133 C-48.54452148 30.19661133 -49.20452148 29.86661133 -49.88452148 29.52661133 C-50.21452148 30.18661133 -50.54452148 30.84661133 -50.88452148 31.52661133 C-51.21452148 30.86661133 -51.54452148 30.20661133 -51.88452148 29.52661133 C-45.02000736 14.00684026 -31.82701183 4.32267731 -16.88452148 -2.47338867 C-10.95705056 -4.44921231 -5.42380166 -2.61401906 0 0 Z " fill="#443B32" transform="translate(107.884521484375,28.473388671875)"/>
<path d="M0 0 C1.98 0 3.96 0 6 0 C6 0.99 6 1.98 6 3 C6.825 2.731875 7.65 2.46375 8.5 2.1875 C13.44196947 1.92275164 16.11848216 4.15289681 20 7 C18.75 9.5 18.75 9.5 17 12 C15.68 12 14.36 12 13 12 C13 13.32 13 14.64 13 16 C11.68 15.67 10.36 15.34 9 15 C9 14.34 9 13.68 9 13 C8.360625 12.731875 7.72125 12.46375 7.0625 12.1875 C5 11 5 11 4 8 C2.68 8 1.36 8 0 8 C-0.33 9.32 -0.66 10.64 -1 12 C-4.33537489 10.88820837 -5.63707344 9.52588702 -8 7 C-7.67 6.01 -7.34 5.02 -7 4 C-6.01 4 -5.02 4 -4 4 C-3.67 3.34 -3.34 2.68 -3 2 C-3 2.66 -3 3.32 -3 4 C-2.34 3.67 -1.68 3.34 -1 3 C-0.67 2.01 -0.34 1.02 0 0 Z " fill="#B29D89" transform="translate(94,27)"/>
<path d="M0 0 C4.31034342 1.22126397 5.96576481 2.54488916 8.65234375 6.01953125 C10.55749431 9.56541646 10.27846357 12.09902324 9.75 16.0625 C9.09 17.0525 8.43 18.0425 7.75 19.0625 C4.9375 19.5625 4.9375 19.5625 1.75 19.0625 C-1.37706417 16.50399295 -4.02523725 13.9594724 -5.25 10.0625 C-5.50877945 7.3040212 -5.43030146 4.85717266 -5.25 2.0625 C-3.25 0.0625 -3.25 0.0625 0 0 Z " fill="#F0F0F0" transform="translate(119.25,219.9375)"/>
<path d="M0 0 C0 0.66 0 1.32 0 2 C-0.99 2.33 -1.98 2.66 -3 3 C-3.22054055 5.22237838 -3.22054055 5.22237838 -1.125 7.125 C0.77762162 9.22054055 0.77762162 9.22054055 3 9 C3.33 8.01 3.66 7.02 4 6 C5.32 6 6.64 6 8 6 C10.25 8.5 10.25 8.5 12 11 C11.690625 11.598125 11.38125 12.19625 11.0625 12.8125 C9.89790296 15.08956772 9.89790296 15.08956772 9 18 C7.35 18.33 5.7 18.66 4 19 C3.34 17.68 2.68 16.36 2 15 C2 15.99 2 16.98 2 18 C-0.31 18.66 -2.62 19.32 -5 20 C-4.67 18.68 -4.34 17.36 -4 16 C-5.65 15.67 -7.3 15.34 -9 15 C-9.33 15.99 -9.66 16.98 -10 18 C-10.66 16.68 -11.32 15.36 -12 14 C-11.34 13.67 -10.68 13.34 -10 13 C-10 11.02 -10 9.04 -10 7 C-9.67 7.66 -9.34 8.32 -9 9 C-8.01 9 -7.02 9 -6 9 C-6.66 7.02 -7.32 5.04 -8 3 C-2.25 0 -2.25 0 0 0 Z " fill="#C1AA95" transform="translate(90,29)"/>
<path d="M0 0 C0.33 0 0.66 0 1 0 C1 32.01 1 64.02 1 97 C-0.32 97 -1.64 97 -3 97 C-3.02945039 92.58334775 -3.04694816 88.16672133 -3.0625 83.75 C-3.07087891 82.51507813 -3.07925781 81.28015625 -3.08789062 80.0078125 C-3.10810202 72.32748316 -3.08612757 64.61892751 -2 57 C-1.505 56.505 -1.505 56.505 -1 56 C-0.8768483 54.25161165 -0.82212189 52.49835496 -0.79467773 50.74584961 C-0.77473251 49.62476303 -0.75478729 48.50367645 -0.73423767 47.34861755 C-0.71752518 46.1288472 -0.70081268 44.90907684 -0.68359375 43.65234375 C-0.6524221 41.7899984 -0.6524221 41.7899984 -0.62062073 39.89002991 C-0.56616391 36.58400877 -0.51595795 33.27797755 -0.46777344 29.97186279 C-0.41760144 26.60032509 -0.36189299 23.22887947 -0.30664062 19.85742188 C-0.19929962 13.23835449 -0.09755802 6.6192184 0 0 Z " fill="#D9C3AA" transform="translate(144,98)"/>
<path d="M0 0 C2.31 0 4.62 0 7 0 C7.01981934 0.89831543 7.03963867 1.79663086 7.06005859 2.72216797 C7.13809261 6.05090078 7.22478114 9.37917256 7.31738281 12.70751953 C7.35569674 14.1488374 7.39054543 15.59025168 7.421875 17.03173828 C7.46747446 19.10223886 7.52547444 21.17207433 7.5859375 23.2421875 C7.6173584 24.4885498 7.6487793 25.73491211 7.68115234 27.01904297 C7.69682309 30.11541776 7.69682309 30.11541776 10 32 C9 33 9 33 6.0625 33.25 C5.051875 33.1675 4.04125 33.085 3 33 C0.57829321 29.36743982 0.6955497 27.47421305 0.5859375 23.14453125 C0.56657135 22.48289474 0.5472052 21.82125824 0.5272522 21.13957214 C0.46757313 19.03067836 0.42111913 16.92172963 0.375 14.8125 C0.33680934 13.38083585 0.29775697 11.94919441 0.2578125 10.51757812 C0.16188227 7.01192688 0.07780803 3.50610555 0 0 Z " fill="#131313" transform="translate(163,209)"/>
<path d="M0 0 C2.31 0 4.62 0 7 0 C7.33 0.99 7.66 1.98 8 3 C8.391875 2.505 8.78375 2.01 9.1875 1.5 C11.55091715 -0.45593143 13.01435003 -0.24207973 16 0 C15.67 1.32 15.34 2.64 15 4 C12.69 4.66 10.38 5.32 8 6 C8 12.27 8 18.54 8 25 C5.36 25 2.72 25 0 25 C0 16.75 0 8.5 0 0 Z " fill="#141514" transform="translate(78,217)"/>
<path d="M0 0 C0.66 0 1.32 0 2 0 C1.89264388 7.67546411 1.78004051 15.35083582 1.66066074 23.02612209 C1.60539973 26.58972968 1.55197482 30.15334543 1.50268555 33.71704102 C1.44599468 37.81015245 1.38142682 41.9031061 1.31640625 45.99609375 C1.29969376 47.28148544 1.28298126 48.56687714 1.26576233 49.89122009 C1.24581711 51.07236893 1.22587189 52.25351776 1.20532227 53.47045898 C1.18977798 54.51636703 1.1742337 55.56227509 1.15821838 56.63987732 C1 59 1 59 0 60 C-0.23427778 62.01594582 -0.41336124 64.038474 -0.5625 66.0625 C-0.64628906 67.16722656 -0.73007813 68.27195312 -0.81640625 69.41015625 C-0.87699219 70.26480469 -0.93757812 71.11945313 -1 72 C-1.33 72 -1.66 72 -2 72 C-2.04628063 62.90769199 -2.08184737 53.81542434 -2.10362434 44.72302437 C-2.11407464 40.5013425 -2.12825645 36.27974105 -2.15087891 32.05810547 C-2.17256303 27.98622723 -2.18455923 23.91442647 -2.18975449 19.84249496 C-2.19345824 18.28670913 -2.20069046 16.73092768 -2.21146011 15.17517471 C-2.22591638 13.00096626 -2.22798044 10.82708058 -2.22705078 8.65283203 C-2.231492 7.41373077 -2.23593323 6.17462952 -2.24050903 4.89797974 C-2 2 -2 2 0 0 Z " fill="#F3D9BD" transform="translate(143,95)"/>
<path d="M0 0 C1.58206422 0.00574487 3.16410406 0.01876032 4.74609375 0.03515625 C7.53046875 0.05578125 10.31484375 0.07640625 13.18359375 0.09765625 C13.18359375 7.02765625 13.18359375 13.95765625 13.18359375 21.09765625 C7.24359375 21.09765625 1.30359375 21.09765625 -4.81640625 21.09765625 C-4.84324061 17.78510299 -4.86316405 14.47276442 -4.87890625 11.16015625 C-4.88728516 10.21462891 -4.89566406 9.26910156 -4.90429688 8.29492188 C-4.90751953 7.39580078 -4.91074219 6.49667969 -4.9140625 5.5703125 C-4.91929932 4.73765869 -4.92453613 3.90500488 -4.92993164 3.04711914 C-4.71983797 -0.56061836 -3.77517197 0.09660113 0 0 Z M-2.81640625 2.09765625 C-2.81640625 7.70765625 -2.81640625 13.31765625 -2.81640625 19.09765625 C1.80359375 19.09765625 6.42359375 19.09765625 11.18359375 19.09765625 C10.19359375 18.76765625 9.20359375 18.43765625 8.18359375 18.09765625 C8.51359375 17.10765625 8.84359375 16.11765625 9.18359375 15.09765625 C9.84359375 14.76765625 10.50359375 14.43765625 11.18359375 14.09765625 C11.18359375 11.78765625 11.18359375 9.47765625 11.18359375 7.09765625 C10.52359375 6.76765625 9.86359375 6.43765625 9.18359375 6.09765625 C8.85359375 5.10765625 8.52359375 4.11765625 8.18359375 3.09765625 C9.17359375 2.76765625 10.16359375 2.43765625 11.18359375 2.09765625 C6.56359375 2.09765625 1.94359375 2.09765625 -2.81640625 2.09765625 Z " fill="#20272B" transform="translate(104.81640625,130.90234375)"/>
<path d="M0 0 C13.83713405 1.69349999 24.97161925 11.71029651 33.5390625 22.0703125 C43.89913715 36.1724877 47.80248368 50.51332064 47 68 C46.54002737 70.81983221 45.88858822 73.27869857 45 76 C44.34 76 43.68 76 43 76 C43.16113281 75.18144531 43.32226562 74.36289063 43.48828125 73.51953125 C44.8634564 64.06126552 45.0933073 53.13931702 42 44 C41.731875 43.2059375 41.46375 42.411875 41.1875 41.59375 C34.92734803 24.69133969 23.69571556 12.4838833 7.71875 4.32421875 C5.16519654 3.15603385 2.60798884 2.04005968 0 1 C0 0.67 0 0.34 0 0 Z " fill="#4B4239" transform="translate(102,21)"/>
<path d="M0 0 C2.64 0 5.28 0 8 0 C8 8.25 8 16.5 8 25 C5.36 25 2.72 25 0 25 C0 16.75 0 8.5 0 0 Z " fill="#171717" transform="translate(97,217)"/>
<path d="M0 0 C0.33 0.66 0.66 1.32 1 2 C0.0625 4.125 0.0625 4.125 -1 6 C-1.99 6 -2.98 6 -4 6 C-4 6.99 -4 7.98 -4 9 C-3.01 9.33 -2.02 9.66 -1 10 C0.34090759 10.65129797 1.67592331 11.31513275 3 12 C3.33 11.01 3.66 10.02 4 9 C5.65 8.67 7.3 8.34 9 8 C9.33 9.32 9.66 10.64 10 12 C10.66 12 11.32 12 12 12 C12.33 11.34 12.66 10.68 13 10 C14.32 10 15.64 10 17 10 C17 10.66 17 11.32 17 12 C15.5390625 13.2890625 15.5390625 13.2890625 13.625 14.625 C12.99851562 15.07101563 12.37203125 15.51703125 11.7265625 15.9765625 C10 17 10 17 8 17 C8 16.01 8 15.02 8 14 C7.01 14 6.02 14 5 14 C5.33 15.65 5.66 17.3 6 19 C5.34 19.33 4.68 19.66 4 20 C4 18.68 4 17.36 4 16 C2.35 16.66 0.7 17.32 -1 18 C-1 16.35 -1 14.7 -1 13 C-2.32 12.67 -3.64 12.34 -5 12 C-5 11.34 -5 10.68 -5 10 C-7.64 10.66 -10.28 11.32 -13 12 C-12.67 11.01 -12.34 10.02 -12 9 C-11.34 9 -10.68 9 -10 9 C-10 7.35 -10 5.7 -10 4 C-8.68 4 -7.36 4 -6 4 C-5.67 3.34 -5.34 2.68 -5 2 C-3.35636866 1.27840576 -1.68949614 0.60648579 0 0 Z " fill="#DFC4AC" transform="translate(68,54)"/>
<path d="M0 0 C0.33 0.99 0.66 1.98 1 3 C1.99 3.33 2.98 3.66 4 4 C4.33 4.66 4.66 5.32 5 6 C5.99 6.33 6.98 6.66 8 7 C8.6875 9.0625 8.6875 9.0625 9 11 C3.25 15 3.25 15 1 15 C1.33 12.36 1.66 9.72 2 7 C1.01 7 0.02 7 -1 7 C-1.33 8.32 -1.66 9.64 -2 11 C-2.99 10.67 -3.98 10.34 -5 10 C-5 10.66 -5 11.32 -5 12 C-5.99 11.67 -6.98 11.34 -8 11 C-8.66 11 -9.32 11 -10 11 C-10.99 10.67 -11.98 10.34 -13 10 C-12.67 9.01 -12.34 8.02 -12 7 C-10.68 7 -9.36 7 -8 7 C-8 5.68 -8 4.36 -8 3 C-7.34 3 -6.68 3 -6 3 C-6 2.01 -6 1.02 -6 0 C-3 -1 -3 -1 0 0 Z " fill="#9B8776" transform="translate(117,48)"/>
<path d="M0 0 C1.98 0 3.96 0 6 0 C6 7.59 6 15.18 6 23 C4.02 23 2.04 23 0 23 C0 15.41 0 7.82 0 0 Z " fill="#0D0D0D" transform="translate(176,218)"/>
<path d="M0 0 C-0.99 0.7734375 -0.99 0.7734375 -2 1.5625 C-4.67808262 4.82641319 -4.38111155 6.88399525 -4 11 C-3.67 11.66 -3.34 12.32 -3 13 C-1.02 13 0.96 13 3 13 C3 14.32 3 15.64 3 17 C6.465 16.505 6.465 16.505 10 16 C10 16.66 10 17.32 10 18 C6.33333333 18 2.66666667 18 -1 18 C-1.969375 18.103125 -2.93875 18.20625 -3.9375 18.3125 C-7 18 -7 18 -9.375 16 C-11.44631537 12.17603317 -11.98710427 9.25742362 -11 5 C-7.78053133 0.45486776 -5.5148998 -0.64126742 0 0 Z " fill="#1F1F1F" transform="translate(64,224)"/>
<path d="M0 0 C0.99 0 1.98 0 3 0 C3.33 1.32 3.66 2.64 4 4 C3.34 4 2.68 4 2 4 C2 5.32 2 6.64 2 8 C4.97 6.35 7.94 4.7 11 3 C11.99 3.66 12.98 4.32 14 5 C13.67 6.32 13.34 7.64 13 9 C12.01 9 11.02 9 10 9 C10 9.99 10 10.98 10 12 C8.35 11.67 6.7 11.34 5 11 C5 11.66 5 12.32 5 13 C3.68 12.67 2.36 12.34 1 12 C1 11.01 1 10.02 1 9 C-0.32 9 -1.64 9 -3 9 C-3.33 9.66 -3.66 10.32 -4 11 C-4 10.34 -4 9.68 -4 9 C-4.99 9 -5.98 9 -7 9 C-7 7.68 -7 6.36 -7 5 C-6.01 5 -5.02 5 -4 5 C-4 4.34 -4 3.68 -4 3 C-3.01 3 -2.02 3 -1 3 C-0.67 2.01 -0.34 1.02 0 0 Z " fill="#B8A28E" transform="translate(116,55)"/>
<path d="M0 0 C0.66 1.65 1.32 3.3 2 5 C1.01 5.495 1.01 5.495 0 6 C-0.66 5.67 -1.32 5.34 -2 5 C-2.144375 5.7425 -2.28875 6.485 -2.4375 7.25 C-2.90187492 9.52027739 -3.41863569 11.75759479 -4 14 C-4.66 13.67 -5.32 13.34 -6 13 C-7.67654729 13.27942455 -9.34608154 13.60828247 -11 14 C-11.33 15.32 -11.66 16.64 -12 18 C-12.99 17.67 -13.98 17.34 -15 17 C-15.33 16.34 -15.66 15.68 -16 15 C-16.66 14.67 -17.32 14.34 -18 14 C-17.01 13.67 -16.02 13.34 -15 13 C-15 12.01 -15 11.02 -15 10 C-14.01 9.67 -13.02 9.34 -12 9 C-11.67 8.01 -11.34 7.02 -11 6 C-10.01 5.67 -9.02 5.34 -8 5 C-7.34 4.01 -6.68 3.02 -6 2 C-3.83252916 0.71306419 -2.53199972 0 0 0 Z " fill="#BCA590" transform="translate(83,33)"/>
<path d="M0 0 C0.33 0 0.66 0 1 0 C1 32.01 1 64.02 1 97 C0.67 97 0.34 97 0 97 C0 75.55 0 54.1 0 32 C-1.98 32 -3.96 32 -6 32 C-6 30.68 -6 29.36 -6 28 C-4.35 28 -2.7 28 -1 28 C-0.67 18.76 -0.34 9.52 0 0 Z " fill="#7F7468" transform="translate(140,98)"/>
<path d="M0 0 C0.33 0.99 0.66 1.98 1 3 C1.99 3 2.98 3 4 3 C4 4.65 4 6.3 4 8 C3.34 8 2.68 8 2 8 C2 8.99 2 9.98 2 11 C2.66 11 3.32 11 4 11 C4.36923077 15.55384615 4.36923077 15.55384615 2.5 17.8125 C2.005 18.204375 1.51 18.59625 1 19 C1.99 19 2.98 19 4 19 C2.50079488 22.11373372 0.91847864 25.12228205 -1 28 C-1.66 28 -2.32 28 -3 28 C-3 26.35 -3 24.7 -3 23 C-2.01 23 -1.02 23 0 23 C-0.495 22.608125 -0.99 22.21625 -1.5 21.8125 C-3.45593143 19.44908285 -3.24207973 17.98564997 -3 15 C-2.34 15 -1.68 15 -1 15 C-1 14.34 -1 13.68 -1 13 C-1.66 12.67 -2.32 12.34 -3 12 C-3 10.68 -3 9.36 -3 8 C-2.01 8 -1.02 8 0 8 C-0.2784375 6.2984375 -0.2784375 6.2984375 -0.5625 4.5625 C-0.706875 3.386875 -0.85125 2.21125 -1 1 C-0.67 0.67 -0.34 0.34 0 0 Z " fill="#DAC3AB" transform="translate(58,88)"/>
<path d="M0 0 C2 1 2 1 2.875 3 C3.81057694 5.20361464 3.81057694 5.20361464 6.0703125 5.625 C6.70710938 5.74875 7.34390625 5.8725 8 6 C7.3709375 6.37511719 6.741875 6.75023438 6.09375 7.13671875 C4.30555238 8.20586703 2.52057751 9.28041772 0.73828125 10.359375 C-0.9173142 11.35131521 -2.58390581 12.32562045 -4.26953125 13.265625 C-9.27328726 16.13584833 -11.92944113 19.1062968 -15 24 C-15.66 23.34 -16.32 22.68 -17 22 C-16.319375 21.278125 -15.63875 20.55625 -14.9375 19.8125 C-12.68262931 17.1794348 -12.68262931 17.1794348 -13.25 14.1875 C-13.4975 13.465625 -13.745 12.74375 -14 12 C-13.01 11.67 -12.02 11.34 -11 11 C-10.67 11.33 -10.34 11.66 -10 12 C-10 11.01 -10 10.02 -10 9 C-9.01 9 -8.02 9 -7 9 C-7 9.99 -7 10.98 -7 12 C-6.51789063 11.6390625 -6.03578125 11.278125 -5.5390625 10.90625 C-4.90742187 10.4421875 -4.27578125 9.978125 -3.625 9.5 C-2.99851562 9.0359375 -2.37203125 8.571875 -1.7265625 8.09375 C0 7 0 7 2 7 C2 6.34 2 5.68 2 5 C0.68 5 -0.64 5 -2 5 C-2.33 5.99 -2.66 6.98 -3 8 C-3.99 7.67 -4.98 7.34 -6 7 C-5.67 6.01 -5.34 5.02 -5 4 C-4.01 3.67 -3.02 3.34 -2 3 C-1.34 2.01 -0.68 1.02 0 0 Z " fill="#54483F" transform="translate(83,59)"/>
<path d="M0 0 C0.66 0.66 1.32 1.32 2 2 C1.175 2.763125 0.35 3.52625 -0.5 4.3125 C-3.34055197 6.75434142 -3.34055197 6.75434142 -3 10 C-3.66 10 -4.32 10 -5 10 C-5.33 11.32 -5.66 12.64 -6 14 C-6.99 13.67 -7.98 13.34 -9 13 C-9 12.01 -9 11.02 -9 10 C-9.33 10.33 -9.66 10.66 -10 11 C-12.33944736 10.71269945 -14.6739143 10.38063221 -17 10 C-13.55384615 3.23076923 -13.55384615 3.23076923 -10.75 2.0625 C-10.1725 2.041875 -9.595 2.02125 -9 2 C-8.67 2.99 -8.34 3.98 -8 5 C-7.34 5 -6.68 5 -6 5 C-5.67 4.01 -5.34 3.02 -5 2 C-2.4375 0.8125 -2.4375 0.8125 0 0 Z " fill="#CDB49E" transform="translate(77,45)"/>
<path d="M0 0 C0.33 0 0.66 0 1 0 C1.02685095 2.47923801 1.04676547 4.9581884 1.0625 7.4375 C1.07087891 8.14455078 1.07925781 8.85160156 1.08789062 9.58007812 C1.09653588 11.38693559 1.05220011 13.19387603 1 15 C0 16 0 16 -2.4375 16.25 C-3.283125 16.1675 -4.12875 16.085 -5 16 C-7.46324069 12.30513897 -7.38991688 10.36706908 -7 6 C-5.5 4.0625 -5.5 4.0625 -4 3 C-4.66 2.34 -5.32 1.68 -6 1 C-4.7934375 1.0309375 -4.7934375 1.0309375 -3.5625 1.0625 C-1.06645115 1.29633621 -1.06645115 1.29633621 0 0 Z " fill="#E8E8E8" transform="translate(66,222)"/>
<path d="M0 0 C0.99 0 1.98 0 3 0 C3 0.99 3 1.98 3 3 C2.01 3.495 2.01 3.495 1 4 C1 4.66 1 5.32 1 6 C2.32 6 3.64 6 5 6 C5.33 8.97 5.66 11.94 6 15 C3.525 14.01 3.525 14.01 1 13 C0.67 14.98 0.34 16.96 0 19 C-0.33 18.01 -0.66 17.02 -1 16 C-1.99 16 -2.98 16 -4 16 C-4.33 14.68 -4.66 13.36 -5 12 C-3.68 11.67 -2.36 11.34 -1 11 C-1 9.68 -1 8.36 -1 7 C-1.99 7 -2.98 7 -4 7 C-4 6.01 -4 5.02 -4 4 C-3.01 3.67 -2.02 3.34 -1 3 C-0.67 2.01 -0.34 1.02 0 0 Z " fill="#DEC4AD" transform="translate(135,64)"/>
<path d="M0 0 C0.33 0.66 0.66 1.32 1 2 C2.32 2 3.64 2 5 2 C5 2.66 5 3.32 5 4 C6.32 3.67 7.64 3.34 9 3 C12 7.625 12 7.625 12 11 C9.69 11.66 7.38 12.32 5 13 C5.33 11.68 5.66 10.36 6 9 C4.35 8.67 2.7 8.34 1 8 C0.67 8.99 0.34 9.98 0 11 C-0.66 9.68 -1.32 8.36 -2 7 C-1.34 6.67 -0.68 6.34 0 6 C0 4.02 0 2.04 0 0 Z " fill="#CAB29C" transform="translate(80,36)"/>
<path d="M0 0 C0.66 0.33 1.32 0.66 2 1 C2 1.99 2 2.98 2 4 C1.01 4.495 1.01 4.495 0 5 C-0.65213292 7.02463255 -0.65213292 7.02463255 -1 9 C-0.01 9 0.98 9 2 9 C2 9.99 2 10.98 2 12 C0.68 11.67 -0.64 11.34 -2 11 C-2.144375 11.721875 -2.28875 12.44375 -2.4375 13.1875 C-2.95833333 15.79166667 -3.47916667 18.39583333 -4 21 C-3.34 21 -2.68 21 -2 21 C-2 21.99 -2 22.98 -2 24 C-2.66 24 -3.32 24 -4 24 C-4 25.65 -4 27.3 -4 29 C-3.34 29 -2.68 29 -2 29 C-2.33 30.98 -2.66 32.96 -3 35 C-5.53902587 31.1914612 -5.38274478 28.04544562 -5.375 23.625 C-5.37556396 22.82586182 -5.37612793 22.02672363 -5.37670898 21.20336914 C-5.25901493 14.77135699 -4.78678764 4.78678764 0 0 Z " fill="#3C342D" transform="translate(56,59)"/>
<path d="M0 0 C1.485 0.99 1.485 0.99 3 2 C3.99 1.67 4.98 1.34 6 1 C6.66 1.33 7.32 1.66 8 2 C8 2.66 8 3.32 8 4 C8.99 4 9.98 4 11 4 C11.33 3.34 11.66 2.68 12 2 C12 2.99 12 3.98 12 5 C10.68 5 9.36 5 8 5 C7.67 5.99 7.34 6.98 7 8 C6.67 8 6.34 8 6 8 C6 9.65 6 11.3 6 13 C4.68 13.33 3.36 13.66 2 14 C0.875 8.375 0.875 8.375 2 5 C1.34 5 0.68 5 0 5 C0 3.35 0 1.7 0 0 Z " fill="#A89685" transform="translate(52,83)"/>
<path d="M0 0 C1.37482707 1.63260714 2.70647667 3.30225062 4 5 C4.66 5.66 5.32 6.32 6 7 C5.34 7 4.68 7 4 7 C3.67 7.99 3.34 8.98 3 10 C2.2575 9.62875 1.515 9.2575 0.75 8.875 C-1.94283647 7.70484137 -1.94283647 7.70484137 -4.3125 8.875 C-5.1478125 9.431875 -5.1478125 9.431875 -6 10 C-6.8125 7.8125 -6.8125 7.8125 -7 5 C-2.88888889 0 -2.88888889 0 0 0 Z " fill="#DCC1A9" transform="translate(98,59)"/>
<path d="M0 0 C0.33 0 0.66 0 1 0 C1.20624209 13.95571489 1.20624209 13.95571489 0 19 C-0.99 19.66 -1.98 20.32 -3 21 C-3 20.34 -3 19.68 -3 19 C-4.32 18.67 -5.64 18.34 -7 18 C-6.67 17.34 -6.34 16.68 -6 16 C-4.68 16.33 -3.36 16.66 -2 17 C-2.33 15.35 -2.66 13.7 -3 12 C-4.32 11.67 -5.64 11.34 -7 11 C-6.67 10.01 -6.34 9.02 -6 8 C-3 9.5 -3 9.5 0 11 C0 9.68 0 8.36 0 7 C-0.66 7 -1.32 7 -2 7 C-2 6.01 -2 5.02 -2 4 C-1.34 4 -0.68 4 0 4 C0 2.68 0 1.36 0 0 Z " fill="#2D2620" transform="translate(142,76)"/>
<path d="M0 0 C2.125 0.9375 2.125 0.9375 4 2 C4 2.66 4 3.32 4 4 C4.99 4.33 5.98 4.66 7 5 C6.67 5.99 6.34 6.98 6 8 C4.35 7.67 2.7 7.34 1 7 C1.33 8.65 1.66 10.3 2 12 C1.01 12 0.02 12 -1 12 C-0.67 10.02 -0.34 8.04 0 6 C-1.65 6.66 -3.3 7.32 -5 8 C-5 6.68 -5 5.36 -5 4 C-4.01 4 -3.02 4 -2 4 C-2 3.01 -2 2.02 -2 1 C-1.34 0.67 -0.68 0.34 0 0 Z " fill="#75675A" transform="translate(83,43)"/>
<path d="M0 0 C1 2 1 2 0.44140625 3.85546875 C0.15136719 4.62503906 -0.13867188 5.39460938 -0.4375 6.1875 C-2.66640612 13.08697758 -2.25833486 19.8240317 -2 27 C-2.66 27 -3.32 27 -4 27 C-4 26.34 -4 25.68 -4 25 C-4.99 25 -5.98 25 -7 25 C-6.505 23.515 -6.505 23.515 -6 22 C-5.34 22 -4.68 22 -4 22 C-4 20.35 -4 18.7 -4 17 C-4.66 17 -5.32 17 -6 17 C-6 16.01 -6 15.02 -6 14 C-5.34 14 -4.68 14 -4 14 C-4 12.35 -4 10.7 -4 9 C-4.66 9 -5.32 9 -6 9 C-6 8.01 -6 7.02 -6 6 C-4.68 6 -3.36 6 -2 6 C-1.855625 5.195625 -1.71125 4.39125 -1.5625 3.5625 C-1 1 -1 1 0 0 Z " fill="#362F2A" transform="translate(66,82)"/>
<path d="M0 0 C0.66 0 1.32 0 2 0 C1.39009109 3.55780196 0.4216319 6.6828589 -1 10 C-1.99 9.67 -2.98 9.34 -4 9 C-4.33 8.34 -4.66 7.68 -5 7 C-5.66 7 -6.32 7 -7 7 C-7.625 5.125 -7.625 5.125 -8 3 C-6 1 -6 1 -3.4375 0.9375 C-2.2309375 0.9684375 -2.2309375 0.9684375 -1 1 C-0.67 0.67 -0.34 0.34 0 0 Z " fill="#A89281" transform="translate(81,49)"/>
<path d="M0 0 C0 0.99 0 1.98 0 3 C-0.99 3 -1.98 3 -3 3 C-3 3.99 -3 4.98 -3 6 C-4.62339805 7.70884005 -6.29319053 9.37446717 -8 11 C-8.99 12.485 -8.99 12.485 -10 14 C-9.34 15.32 -8.68 16.64 -8 18 C-8.99 18.33 -9.98 18.66 -11 19 C-11.66 18.67 -12.32 18.34 -13 18 C-13.33 18.66 -13.66 19.32 -14 20 C-14.33 19.34 -14.66 18.68 -15 18 C-12.68008403 12.96727907 -6.23326931 0 0 0 Z " fill="#433830" transform="translate(71,40)"/>
<path d="M0 0 C0.99 0.66 1.98 1.32 3 2 C2.34 2 1.68 2 1 2 C1 3.65 1 5.3 1 7 C1.99 7 2.98 7 4 7 C4 7.66 4 8.32 4 9 C5.32 9.66 6.64 10.32 8 11 C5.36 10.67 2.72 10.34 0 10 C-0.33 9.01 -0.66 8.02 -1 7 C-2.32 7 -3.64 7 -5 7 C-5 5.35 -5 3.7 -5 2 C-2.6875 0.875 -2.6875 0.875 0 0 Z " fill="#DEC2AA" transform="translate(108,57)"/>
<path d="M0 0 C1.0803261 3.44831362 1.03754941 6.48221344 0.87890625 10.078125 C0.83056641 11.23828125 0.78222656 12.3984375 0.73242188 13.59375 C0.67634766 14.8003125 0.62027344 16.006875 0.5625 17.25 C0.51029297 18.47203125 0.45808594 19.6940625 0.40429688 20.953125 C0.27470786 23.96901481 0.13974424 26.98456646 0 30 C-1.74627478 27.38058783 -2.38722388 25.96175123 -3 23 C-2.34 23 -1.68 23 -1 23 C-1 21.02 -1 19.04 -1 17 C-1.99 17 -2.98 17 -4 17 C-4 16.01 -4 15.02 -4 14 C-3.01 14 -2.02 14 -1 14 C-1 12.35 -1 10.7 -1 9 C-1.99 9 -2.98 9 -4 9 C-4 8.01 -4 7.02 -4 6 C-3.01 6 -2.02 6 -1 6 C-0.67 4.02 -0.34 2.04 0 0 Z " fill="#231F1A" transform="translate(140,94)"/>
<path d="M0 0 C0.99 0 1.98 0 3 0 C3.33 0.66 3.66 1.32 4 2 C4.99 2.33 5.98 2.66 7 3 C7.6875 5.0625 7.6875 5.0625 8 7 C2.25 11 2.25 11 0 11 C0.185625 10.29875 0.37125 9.5975 0.5625 8.875 C1.05156976 5.66111302 0.66231558 3.16439664 0 0 Z " fill="#8A796A" transform="translate(118,52)"/>
<path d="M0 0 C1.32 0.33 2.64 0.66 4 1 C4 1.99 4 2.98 4 4 C7.27773504 3.24849977 7.27773504 3.24849977 9 0 C9.99 0 10.98 0 12 0 C10.87548273 2.9719385 9.77706209 5.33440687 8 8 C7.01 8 6.02 8 5 8 C5 7.34 5 6.68 5 6 C3.02 6.33 1.04 6.66 -1 7 C-1 3 -1 3 0 0 Z " fill="#E7CCB4" transform="translate(55,79)"/>
<path d="M0 0 C-0.51085812 6.43681228 -1.72942897 11.95942424 -4 18 C-4.33 18 -4.66 18 -5 18 C-5.02701408 15.89590361 -5.04640223 13.79170822 -5.0625 11.6875 C-5.07410156 10.51574219 -5.08570313 9.34398438 -5.09765625 8.13671875 C-5 5 -5 5 -4 2 C-1 0 -1 0 0 0 Z " fill="#E5CDB0" transform="translate(69,84)"/>
<path d="M0 0 C0 0.99 0 1.98 0 3 C-0.99 3.495 -0.99 3.495 -2 4 C-2.33 4.99 -2.66 5.98 -3 7 C-1.68 6.67 -0.36 6.34 1 6 C1 6.66 1 7.32 1 8 C1.99 8 2.98 8 4 8 C4 8.99 4 9.98 4 11 C1.3125 11.4375 1.3125 11.4375 -2 11 C-4.04775301 8.88875077 -5.53480226 6.54140493 -7 4 C-3.375 0 -3.375 0 0 0 Z " fill="#A49180" transform="translate(130,72)"/>
<path d="M0 0 C0.33 0.66 0.66 1.32 1 2 C1.99 2.33 2.98 2.66 4 3 C4 4.32 4 5.64 4 7 C3.2575 6.814375 2.515 6.62875 1.75 6.4375 C-0.94990963 6.00796892 -2.44631077 6.14877026 -5 7 C-5 6.01 -5 5.02 -5 4 C-5.99 4 -6.98 4 -8 4 C-8 3.34 -8 2.68 -8 2 C-5.09399739 0.74335022 -3.20395416 0 0 0 Z " fill="#9B8978" transform="translate(63,64)"/>
<path d="M0 0 C2.64 0 5.28 0 8 0 C8.33 0.99 8.66 1.98 9 3 C9.99 3.33 10.98 3.66 12 4 C11.67 4.66 11.34 5.32 11 6 C8.6859378 6.73075648 6.35171131 7.40138258 4 8 C3.67 6.68 3.34 5.36 3 4 C1.68 3.67 0.36 3.34 -1 3 C-0.67 2.01 -0.34 1.02 0 0 Z " fill="#9C8978" transform="translate(114,39)"/>
<path d="M0 0 C2.79651501 1.46817038 3.43411431 2.40553901 4.5 5.3125 C3.51 6.3025 2.52 7.2925 1.5 8.3125 C0.51 7.9825 -0.48 7.6525 -1.5 7.3125 C-1.5 6.3225 -1.5 5.3325 -1.5 4.3125 C-2.82 3.9825 -4.14 3.6525 -5.5 3.3125 C-5.17 2.3225 -4.84 1.3325 -4.5 0.3125 C-2.5 -0.6875 -2.5 -0.6875 0 0 Z " fill="#A69380" transform="translate(127.5,46.6875)"/>
<path d="M0 0 C1.32 0 2.64 0 4 0 C4 1.32 4 2.64 4 4 C5.32 4 6.64 4 8 4 C8 5.32 8 6.64 8 8 C9.32 8 10.64 8 12 8 C12.33 8.66 12.66 9.32 13 10 C15.01669827 11.13350534 15.01669827 11.13350534 17 12 C15.29296875 12.703125 15.29296875 12.703125 13 13 C10.67578125 11.671875 10.67578125 11.671875 8.3125 9.75 C7.52488281 9.12609375 6.73726563 8.5021875 5.92578125 7.859375 C4 6 4 6 3 3 C2.01 3.33 1.02 3.66 0 4 C0 2.68 0 1.36 0 0 Z " fill="#3D342E" transform="translate(95,56)"/>
<path d="M0 0 C4.95 1.98 4.95 1.98 10 4 C9.34 5.32 8.68 6.64 8 8 C6.53932801 7.54917531 5.08151968 7.08906463 3.625 6.625 C2.81289062 6.36976562 2.00078125 6.11453125 1.1640625 5.8515625 C-1 5 -1 5 -3 3 C-2.01 2.01 -1.02 1.02 0 0 Z " fill="#DDC5AC" transform="translate(105,23)"/>
<path d="M0 0 C0.99 0 1.98 0 3 0 C3.33 0.66 3.66 1.32 4 2 C4.99 2.33 5.98 2.66 7 3 C7 4.32 7 5.64 7 7 C6.360625 7.103125 5.72125 7.20625 5.0625 7.3125 C4.381875 7.539375 3.70125 7.76625 3 8 C2.67 8.99 2.34 9.98 2 11 C1.34 11 0.68 11 0 11 C0.33 9.68 0.66 8.36 1 7 C1.66 7 2.32 7 3 7 C3 6.01 3 5.02 3 4 C1.35 4.66 -0.3 5.32 -2 6 C-2 5.01 -2 4.02 -2 3 C-1.34 3 -0.68 3 0 3 C0 2.01 0 1.02 0 0 Z " fill="#706256" transform="translate(127,68)"/>
<path d="M0 0 C0.625 1.875 0.625 1.875 1 4 C0.34 4.66 -0.32 5.32 -1 6 C-3.625 5.625 -3.625 5.625 -6 5 C-6.33 3.35 -6.66 1.7 -7 0 C-4.3333581 -1.33332095 -2.83319697 -0.67102033 0 0 Z " fill="#1B1B1B" transform="translate(104,208)"/>
<path d="M0 0 C2.625 0.375 2.625 0.375 5 1 C5.625 2.875 5.625 2.875 6 5 C5.34 5.66 4.68 6.32 4 7 C1.375 6.625 1.375 6.625 -1 6 C-1.625 4.125 -1.625 4.125 -2 2 C-1.34 1.34 -0.68 0.68 0 0 Z " fill="#1B1B1B" transform="translate(177,207)"/>
<path d="M0 0 C0 0.66 0 1.32 0 2 C-0.99 2.33 -1.98 2.66 -3 3 C-3.2284549 5.24362573 -3.2284549 5.24362573 -1 7.125 C-0.34 7.74375 0.32 8.3625 1 9 C0.34 9.66 -0.32 10.32 -1 11 C-2.32 11 -3.64 11 -5 11 C-5.99 8.36 -6.98 5.72 -8 3 C-2.25 0 -2.25 0 0 0 Z " fill="#E6CAB2" transform="translate(90,29)"/>
<path d="M0 0 C0.66 0 1.32 0 2 0 C2.33 0.99 2.66 1.98 3 3 C4.32 3 5.64 3 7 3 C7 2.34 7 1.68 7 1 C7.66 1 8.32 1 9 1 C8.40072174 4.35595828 7.15377564 6.37801226 5 9 C3 7.625 3 7.625 1 6 C1 5.34 1 4.68 1 4 C0.01 3.67 -0.98 3.34 -2 3 C-1.34 2.01 -0.68 1.02 0 0 Z " fill="#E8CDB3" transform="translate(124,51)"/>
<path d="M0 0 C0 5.61 0 11.22 0 17 C-1.32 16.67 -2.64 16.34 -4 16 C-3.67 14.68 -3.34 13.36 -3 12 C-2.34 12 -1.68 12 -1 12 C-1 9.69 -1 7.38 -1 5 C-1.99 4.67 -2.98 4.34 -4 4 C-4 3.01 -4 2.02 -4 1 C-1 0 -1 0 0 0 Z " fill="#482F1A" transform="translate(117,133)"/>
<path d="M0 0 C0.66 0.33 1.32 0.66 2 1 C2 5.29 2 9.58 2 14 C1.01 14.33 0.02 14.66 -1 15 C-1.02703381 13.06257659 -1.04641125 11.12504521 -1.0625 9.1875 C-1.07410156 8.10855469 -1.08570312 7.02960938 -1.09765625 5.91796875 C-1 3 -1 3 0 0 Z " fill="#F0D5B8" transform="translate(128,90)"/>
<path d="M0 0 C1.32 0.99 2.64 1.98 4 3 C3.690625 3.598125 3.38125 4.19625 3.0625 4.8125 C1.89790296 7.08956772 1.89790296 7.08956772 1 10 C-0.65 10.33 -2.3 10.66 -4 11 C-4 9.35 -4 7.7 -4 6 C-2.68 5.67 -1.36 5.34 0 5 C0 3.35 0 1.7 0 0 Z " fill="#EACFB8" transform="translate(98,37)"/>
<path d="M0 0 C0.66 1.65 1.32 3.3 2 5 C1.01 5.495 1.01 5.495 0 6 C-0.66 5.67 -1.32 5.34 -2 5 C-2.33 6.65 -2.66 8.3 -3 10 C-3.99 9.67 -4.98 9.34 -6 9 C-5.7215625 7.824375 -5.7215625 7.824375 -5.4375 6.625 C-4.74037734 4.02910225 -4.74037734 4.02910225 -6 2 C-2.25 0 -2.25 0 0 0 Z " fill="#867566" transform="translate(83,33)"/>
<path d="M0 0 C1.12380503 3.37141509 0.98197462 4.64492003 0 8 C-1.5625 10.3125 -1.5625 10.3125 -3 12 C-3.33 11.01 -3.66 10.02 -4 9 C-4.99 9.495 -4.99 9.495 -6 10 C-4.6302836 6.00499382 -2.74277578 3.19990508 0 0 Z " fill="#DDC4A9" transform="translate(72,76)"/>
<path d="M0 0 C0.78375 0.04125 1.5675 0.0825 2.375 0.125 C1.5 4 1.5 4 0.375 5.125 C-2.29558851 5.26615161 -4.94932238 5.16747107 -7.625 5.125 C-7.295 4.135 -6.965 3.145 -6.625 2.125 C-5.965 2.125 -5.305 2.125 -4.625 2.125 C-2.625 0.125 -2.625 0.125 0 0 Z " fill="#242424" transform="translate(91.625,216.875)"/>
<path d="M0 0 C1.08318662 4.08278034 0.83473185 7.17878835 0.0625 11.3125 C-0.22947266 12.91544922 -0.22947266 12.91544922 -0.52734375 14.55078125 C-0.68332031 15.35902344 -0.83929688 16.16726562 -1 17 C-1.33 17 -1.66 17 -2 17 C-2.06058594 16.26394531 -2.12117188 15.52789062 -2.18359375 14.76953125 C-2.26738281 13.79371094 -2.35117188 12.81789063 -2.4375 11.8125 C-2.51871094 10.84957031 -2.59992188 9.88664062 -2.68359375 8.89453125 C-2.97666151 6.21350398 -3.42703754 3.6337014 -4 1 C-2 0 -2 0 0 0 Z " fill="#D6BDA4" transform="translate(128,85)"/>
<path d="M0 0 C1.32 0 2.64 0 4 0 C4.33 0.99 4.66 1.98 5 3 C5.99 3.33 6.98 3.66 8 4 C8 4.99 8 5.98 8 7 C1.25 6.25 1.25 6.25 -1 4 C-0.34 3.67 0.32 3.34 1 3 C0.67 2.01 0.34 1.02 0 0 Z " fill="#7D6E5F" transform="translate(113,64)"/>
<path d="M0 0 C0.66 0.33 1.32 0.66 2 1 C2.40729228 3.32156597 2.74438677 5.6568787 3 8 C2.01 7.67 1.02 7.34 0 7 C0.66 7 1.32 7 2 7 C2 6.34 2 5.68 2 5 C0.68 5 -0.64 5 -2 5 C-2.33 5.99 -2.66 6.98 -3 8 C-3.99 7.67 -4.98 7.34 -6 7 C-5.67 6.01 -5.34 5.02 -5 4 C-4.01 3.67 -3.02 3.34 -2 3 C-1.34 2.01 -0.68 1.02 0 0 Z " fill="#786A5C" transform="translate(83,59)"/>
<path d="M0 0 C4.23322844 0.62045463 7.52290295 2.10523559 11.3125 4.0625 C12.38113281 4.61035156 13.44976562 5.15820312 14.55078125 5.72265625 C15.35902344 6.14417969 16.16726562 6.56570312 17 7 C16.01 7.33 15.02 7.66 14 8 C12.27465062 6.99083338 10.55100526 5.97798943 8.8515625 4.92578125 C6.20178844 3.60089422 3.90115065 3.71696091 1 4 C0.67 2.68 0.34 1.36 0 0 Z " fill="#362E27" transform="translate(99,26)"/>
<path d="M0 0 C0.99 0.33 1.98 0.66 3 1 C3 1.66 3 2.32 3 3 C2.34 3 1.68 3 1 3 C1.78827746 4.29373782 2.58075116 5.58491951 3.375 6.875 C3.81585938 7.59429687 4.25671875 8.31359375 4.7109375 9.0546875 C5.9853713 11.11793582 5.9853713 11.11793582 8 13 C7.01 13.33 6.02 13.66 5 14 C3.96097967 12.61765122 2.94436554 11.21844209 1.9375 9.8125 C1.36902344 9.03519531 0.80054688 8.25789063 0.21484375 7.45703125 C-1.25702664 4.48016155 -0.96747771 3.112514 0 0 Z " fill="#39302A" transform="translate(131,104)"/>
<path d="M0 0 C2.0625 0.4375 2.0625 0.4375 4 1 C2.50079488 4.11373372 0.91847864 7.12228205 -1 10 C-1.66 10 -2.32 10 -3 10 C-3 8.35 -3 6.7 -3 5 C-2.01 5 -1.02 5 0 5 C-0.2784375 4.0409375 -0.2784375 4.0409375 -0.5625 3.0625 C-0.706875 2.381875 -0.85125 1.70125 -1 1 C-0.67 0.67 -0.34 0.34 0 0 Z " fill="#D9BFA8" transform="translate(58,106)"/>
<path d="M0 0 C1.32 0.33 2.64 0.66 4 1 C-6.37357631 7.51936219 -6.37357631 7.51936219 -12 9 C-9.74259377 6.66475218 -7.7194239 4.81294927 -5 3 C-3.68 3 -2.36 3 -1 3 C-0.67 2.01 -0.34 1.02 0 0 Z " fill="#382F28" transform="translate(87,64)"/>
<path d="M0 0 C2.64 0.66 5.28 1.32 8 2 C7.67 2.99 7.34 3.98 7 5 C3.28400809 5.20086443 2.22791555 5.1519437 -1 3 C-0.67 2.01 -0.34 1.02 0 0 Z " fill="#EBCFB7" transform="translate(97,21)"/>
<path d="M0 0 C0.33 0.99 0.66 1.98 1 3 C1.66 3 2.32 3 3 3 C3 3.99 3 4.98 3 6 C2.34 6 1.68 6 1 6 C1 7.65 1 9.3 1 11 C1.66 11 2.32 11 3 11 C2.67 12.98 2.34 14.96 2 17 C-0.49118953 13.2632157 -0.2065226 11.25548181 -0.125 6.8125 C-0.10695312 5.54019531 -0.08890625 4.26789063 -0.0703125 2.95703125 C-0.04710937 1.98121094 -0.02390625 1.00539063 0 0 Z " fill="#2E2721" transform="translate(51,77)"/>
<path d="M0 0 C0.33 0.66 0.66 1.32 1 2 C0 4 0 4 -2 6 C-4.75372909 6.36933645 -7.20365661 6.18336678 -10 6 C-6.87567603 3.47650757 -3.61939504 1.72743854 0 0 Z " fill="#4398C4" transform="translate(90,72)"/>
<path d="M0 0 C0.99 0 1.98 0 3 0 C3 0.66 3 1.32 3 2 C5.475 2.99 5.475 2.99 8 4 C7.67 4.99 7.34 5.98 7 7 C5.02 6.34 3.04 5.68 1 5 C0.67 3.35 0.34 1.7 0 0 Z " fill="#6F6053" transform="translate(64,60)"/>
<path d="M0 0 C1.65 0 3.3 0 5 0 C5 1.65 5 3.3 5 5 C2.69 4.67 0.38 4.34 -2 4 C-1.34 2.68 -0.68 1.36 0 0 Z " fill="#A59280" transform="translate(62,51)"/>
<path d="M0 0 C0.33 0.99 0.66 1.98 1 3 C1.66 3 2.32 3 3 3 C3 3.99 3 4.98 3 6 C2.34 6 1.68 6 1 6 C1 7.65 1 9.3 1 11 C0.01 11.495 0.01 11.495 -1 12 C-1.02687279 10.18757948 -1.04633715 8.37504767 -1.0625 6.5625 C-1.07410156 5.55316406 -1.08570313 4.54382813 -1.09765625 3.50390625 C-1 1 -1 1 0 0 Z " fill="#51473D" transform="translate(131,93)"/>
<path d="M0 0 C0.99 0 1.98 0 3 0 C2.34 2.97 1.68 5.94 1 9 C2.65 9 4.3 9 6 9 C6 9.66 6 10.32 6 11 C4.02 11 2.04 11 0 11 C0 7.37 0 3.74 0 0 Z " fill="#332D27" transform="translate(54,117)"/>
<path d="M0 0 C0.66 0.99 1.32 1.98 2 3 C2.99 2.01 3.98 1.02 5 0 C4.67 2.31 4.34 4.62 4 7 C3.01 7 2.02 7 1 7 C0.67 7.99 0.34 8.98 0 10 C-1.231394 6.30581799 -0.64432764 3.7943739 0 0 Z " fill="#DCC3AA" transform="translate(142,88)"/>
<path d="M0 0 C0.33 0 0.66 0 1 0 C1 1.98 1 3.96 1 6 C-0.98 6 -2.96 6 -5 6 C-5 4.68 -5 3.36 -5 2 C-3.35 2 -1.7 2 0 2 C0 1.34 0 0.68 0 0 Z " fill="#675B4F" transform="translate(139,124)"/>
<path d="M0 0 C0.66 0 1.32 0 2 0 C2.33 1.98 2.66 3.96 3 6 C3.99 6.33 4.98 6.66 6 7 C5.67 7.99 5.34 8.98 5 10 C3.68 9.67 2.36 9.34 1 9 C0.67 6.03 0.34 3.06 0 0 Z " fill="#433A32" transform="translate(52,94)"/>
<path d="M0 0 C1.32 1.32 2.64 2.64 4 4 C3.67 4.99 3.34 5.98 3 7 C1.68 6.67 0.36 6.34 -1 6 C-1.33 6.66 -1.66 7.32 -2 8 C-2.33 7.34 -2.66 6.68 -3 6 C-2.06553465 3.96855359 -1.06775224 1.96466413 0 0 Z " fill="#544A41" transform="translate(59,52)"/>
<path d="M0 0 C0.75 1.75 0.75 1.75 1 4 C-0.8125 6.25 -0.8125 6.25 -3 8 C-3.66 8 -4.32 8 -5 8 C-5 6.35 -5 4.7 -5 3 C-3.68 3 -2.36 3 -1 3 C-0.67 2.01 -0.34 1.02 0 0 Z " fill="#E6CDB3" transform="translate(60,100)"/>
<path d="M0 0 C2 0 2 0 4.125 1.875 C6 4 6 4 6 6 C4.68 6.33 3.36 6.66 2 7 C1.67 6.01 1.34 5.02 1 4 C0.01 3.34 -0.98 2.68 -2 2 C-1.34 1.34 -0.68 0.68 0 0 Z " fill="#EBCCB1" transform="translate(97,52)"/>
<path d="M0 0 C-0.309375 0.53625 -0.61875 1.0725 -0.9375 1.625 C-2.17827439 4.3984957 -2.5909675 7.00042837 -3 10 C-3.66 8.68 -4.32 7.36 -5 6 C-5.99 6.495 -5.99 6.495 -7 7 C-3.86206897 0 -3.86206897 0 0 0 Z " fill="#2F2F2F" transform="translate(117,218)"/>
<path d="M0 0 C1.65 0 3.3 0 5 0 C4.1875 2.4375 4.1875 2.4375 3 5 C2.01 5.33 1.02 5.66 0 6 C0 4.02 0 2.04 0 0 Z " fill="#53331A" transform="translate(102,133)"/>
<path d="M0 0 C2.475 0.495 2.475 0.495 5 1 C5.33 2.65 5.66 4.3 6 6 C4.35 5.67 2.7 5.34 1 5 C0.67 3.35 0.34 1.7 0 0 Z " fill="#E8CCB2" transform="translate(134,87)"/>
<path d="M0 0 C-1.65 1.65 -3.3 3.3 -5 5 C-5.66 4.34 -6.32 3.68 -7 3 C-6.67 2.01 -6.34 1.02 -6 0 C-3.50907189 -1.24546405 -2.58919267 -0.7767578 0 0 Z " fill="#E8CFB5" transform="translate(87,26)"/>
<path d="M0 0 C1.32 0 2.64 0 4 0 C4 1.65 4 3.3 4 5 C2.68 5.33 1.36 5.66 0 6 C0 4.02 0 2.04 0 0 Z " fill="#E4C8B0" transform="translate(135,95)"/>
<path d="M0 0 C4.75 0.75 4.75 0.75 7 3 C6.34 3 5.68 3 5 3 C4.67 3.99 4.34 4.98 4 6 C3.01 5.67 2.02 5.34 1 5 C1.33 3.68 1.66 2.36 2 1 C1.34 0.67 0.68 0.34 0 0 Z " fill="#8B7A6B" transform="translate(103,29)"/>
<path d="M0 0 C0.99 0.33 1.98 0.66 3 1 C2.4140625 7.15234375 2.4140625 7.15234375 2 9 C1.01 9.495 1.01 9.495 0 10 C0 6.7 0 3.4 0 0 Z " fill="#F8DCBE" transform="translate(64,92)"/>
<path d="M0 0 C0.66 0.66 1.32 1.32 2 2 C4.10820797 1.6814823 4.10820797 1.6814823 6 1 C6 1.99 6 2.98 6 4 C5.01 4 4.02 4 3 4 C2.67 4.99 2.34 5.98 2 7 C2 6.34 2 5.68 2 5 C1.34 5 0.68 5 0 5 C0 3.35 0 1.7 0 0 Z " fill="#807265" transform="translate(52,75)"/>
<path d="M0 0 C0 0.99 0 1.98 0 3 C-3 5 -3 5 -5.1875 4.625 C-5.785625 4.41875 -6.38375 4.2125 -7 4 C-3.375 0 -3.375 0 0 0 Z " fill="#EBD0B6" transform="translate(130,72)"/>
<path d="M0 0 C0.99 0 1.98 0 3 0 C3 0.99 3 1.98 3 3 C-1.34285714 7 -1.34285714 7 -4 7 C-4 6.01 -4 5.02 -4 4 C-3.01 3.67 -2.02 3.34 -1 3 C-0.67 2.01 -0.34 1.02 0 0 Z " fill="#EFD4B8" transform="translate(135,64)"/>
<path d="M0 0 C2.15377564 2.62198774 3.40072174 4.64404172 4 8 C3.01 8.33 2.02 8.66 1 9 C-1.09230769 4.56923077 -1.09230769 4.56923077 -0.625 1.6875 C-0.41875 1.130625 -0.2125 0.57375 0 0 Z " fill="#EFD1B8" transform="translate(107,43)"/>
<path d="M0 0 C2.125 0.9375 2.125 0.9375 4 2 C2.75 3.5625 2.75 3.5625 1 5 C-1.1875 4.6875 -1.1875 4.6875 -3 4 C-2.67 3.01 -2.34 2.02 -2 1 C-1.34 0.67 -0.68 0.34 0 0 Z " fill="#8F7E6E" transform="translate(125,46)"/>
<path d="M0 0 C3.875 1.75 3.875 1.75 5 4 C4.01 5.485 4.01 5.485 3 7 C3 6.01 3 5.02 3 4 C1.68 3.67 0.36 3.34 -1 3 C-0.67 2.01 -0.34 1.02 0 0 Z " fill="#887869" transform="translate(136,84)"/>
<path d="M0 0 C-0.75 2.4375 -0.75 2.4375 -2 5 C-4.125 5.8125 -4.125 5.8125 -6 6 C-6.33 5.34 -6.66 4.68 -7 4 C-3.375 0 -3.375 0 0 0 Z " fill="#DBC2AD" transform="translate(67,79)"/>
<path d="M0 0 C2 3 2 3 2 6 C0.68 6.33 -0.64 6.66 -2 7 C-2 5.68 -2 4.36 -2 3 C-1.34 3 -0.68 3 0 3 C0 2.01 0 1.02 0 0 Z " fill="#6C6053" transform="translate(138,64)"/>
<path d="M0 0 C0 0.66 0 1.32 0 2 C-0.99 2.33 -1.98 2.66 -3 3 C-4.68538601 4.99665314 -4.68538601 4.99665314 -6 7 C-6.66 5.68 -7.32 4.36 -8 3 C-2.25 0 -2.25 0 0 0 Z " fill="#DEC5AE" transform="translate(90,29)"/>
<path d="M0 0 C1.32 0 2.64 0 4 0 C4 1.65 4 3.3 4 5 C3.34 5 2.68 5 2 5 C2 4.34 2 3.68 2 3 C1.01 3 0.02 3 -1 3 C-0.67 2.01 -0.34 1.02 0 0 Z " fill="#3B332B" transform="translate(60,104)"/>
<path d="M0 0 C0.66 1.32 1.32 2.64 2 4 C1.01 4.66 0.02 5.32 -1 6 C-1 5.34 -1 4.68 -1 4 C-2.32 3.67 -3.64 3.34 -5 3 C-4.67 2.34 -4.34 1.68 -4 1 C-2.02 1.495 -2.02 1.495 0 2 C0 1.34 0 0.68 0 0 Z " fill="#685B50" transform="translate(140,91)"/>
<path d="M0 0 C3.875 1.75 3.875 1.75 5 4 C4.34 4.66 3.68 5.32 3 6 C1.68 4.68 0.36 3.36 -1 2 C-0.67 1.34 -0.34 0.68 0 0 Z " fill="#807163" transform="translate(136,76)"/>
<path d="M0 0 C0.99 0 1.98 0 3 0 C3.33 0.99 3.66 1.98 4 3 C2.02 3.99 0.04 4.98 -2 6 C-2 5.01 -2 4.02 -2 3 C-1.34 3 -0.68 3 0 3 C0 2.01 0 1.02 0 0 Z " fill="#8A7C6D" transform="translate(127,68)"/>
<path d="M0 0 C0.33 0 0.66 0 1 0 C1.37211538 6.57403846 1.37211538 6.57403846 -0.51171875 8.73046875 C-1.00285156 9.14941406 -1.49398437 9.56835938 -2 10 C-1.85950482 8.52031676 -1.71245174 7.04125484 -1.5625 5.5625 C-1.48128906 4.73878906 -1.40007813 3.91507812 -1.31640625 3.06640625 C-1 1 -1 1 0 0 Z " fill="#453B32" transform="translate(53,67)"/>
<path d="M0 0 C1.32 0 2.64 0 4 0 C4.33 0.66 4.66 1.32 5 2 C7.01669827 3.13350534 7.01669827 3.13350534 9 4 C7.3125 4.8125 7.3125 4.8125 5 5 C2.25 2.5625 2.25 2.5625 0 0 Z " fill="#2C2720" transform="translate(103,64)"/>
<path d="M0 0 C0.66 0 1.32 0 2 0 C2 1.65 2 3.3 2 5 C1.34 5 0.68 5 0 5 C0 5.66 0 6.32 0 7 C-0.99 7 -1.98 7 -3 7 C-2.67 6.01 -2.34 5.02 -2 4 C-1.34 4 -0.68 4 0 4 C0 2.68 0 1.36 0 0 Z " fill="#897A6B" transform="translate(98,27)"/>
<path d="M0 0 C0.33 0 0.66 0 1 0 C1 3.63 1 7.26 1 11 C0.67 11 0.34 11 0 11 C0 9.35 0 7.7 0 6 C-0.66 6 -1.32 6 -2 6 C-2 5.01 -2 4.02 -2 3 C-1.34 3 -0.68 3 0 3 C0 2.01 0 1.02 0 0 Z " fill="#28221C" transform="translate(62,93)"/>
<path d="M0 0 C0.66 0 1.32 0 2 0 C2 1.65 2 3.3 2 5 C0.35 5.33 -1.3 5.66 -3 6 C-2.01 4.02 -1.02 2.04 0 0 Z " fill="#EACCB1" transform="translate(90,65)"/>
</svg>
